<?xml version="1.0" encoding="utf-8"?>
<!-- Generator: Adobe Illustrator 16.0.0, SVG Export Plug-In . SVG Version: 6.00 Build 0)  -->
<!DOCTYPE svg PUBLIC "-//W3C//DTD SVG 1.1//EN" "http://www.w3.org/Graphics/SVG/1.1/DTD/svg11.dtd">
<svg version="1.1" id="Capa_1" xmlns="http://www.w3.org/2000/svg" xmlns:xlink="http://www.w3.org/1999/xlink" x="0px" y="0px"
	 width="640px" height="360px" viewBox="0 0 640 360" enable-background="new 0 0 640 360" xml:space="preserve">
<g>
	<g opacity="0.75">
		<ellipse cx="326" cy="183" rx="132" ry="131"/>
	</g>
	<g>
		<ellipse fill="#E28E3F" cx="324" cy="180" rx="132" ry="131"/>
	</g>
</g>
<g>
	<g>
		<defs>
			<ellipse id="SVGID_1_" cx="326" cy="180" rx="131.888" ry="131"/>
		</defs>
		<clipPath id="SVGID_2_">
			<use xlink:href="#SVGID_1_"  overflow="visible"/>
		</clipPath>
		<g opacity="0.2" clip-path="url(#SVGID_2_)">
			<g opacity="0.8">
				<g>
					<path fill="#030202" d="M386.102,135.801c-0.361,0.959-2.354,1.44-5.98,1.44h-15.047l-6.704-14.403v14.403v126.024
						l-36.251-50.41l-36.251,50.41V133.639v-14.401c0-3.963,1.418-7.354,4.258-10.173c2.84-2.82,6.256-4.23,10.242-4.23l0,0h43.5
						c3.987,0,7.28,0.509,9.88,1.53c2.598,1.021,5.35,2.911,8.246,5.671l21.753,19.803
						C385.677,133.52,386.463,134.841,386.102,135.801z"/>
				</g>
			</g>
			<g opacity="0.7962">
				<path fill="#030202" d="M386.813,136.506c-0.363,0.959-2.356,1.44-5.982,1.44h-15.047l-6.704-14.403v14.403v126.025
					l-36.251-50.41l-36.251,50.41V134.344v-14.401c0-3.963,1.418-7.354,4.258-10.173c2.84-2.82,6.256-4.231,10.242-4.231l0,0h43.5
					c3.987,0,7.28,0.509,9.88,1.53s5.35,2.911,8.246,5.671l21.753,19.803C386.387,134.225,387.172,135.546,386.813,136.506z"/>
			</g>
			<g opacity="0.7924">
				<path fill="#030202" d="M387.521,137.21c-0.363,0.959-2.355,1.44-5.982,1.44h-15.046l-6.704-14.403v14.403v126.024
					l-36.252-50.41l-36.251,50.41V135.048v-14.401c0-3.963,1.419-7.354,4.258-10.173c2.841-2.82,6.256-4.231,10.243-4.231l0,0
					h43.499c3.987,0,7.28,0.509,9.881,1.53c2.597,1.021,5.349,2.911,8.246,5.671l21.753,19.803
					C387.096,134.929,387.881,136.25,387.521,137.21z"/>
			</g>
			<g opacity="0.7886">
				<path fill="#030202" d="M388.229,137.915c-0.361,0.959-2.355,1.44-5.98,1.44h-15.047l-6.704-14.403v14.403v126.024
					l-36.251-50.41l-36.251,50.41V135.752v-14.401c0-3.963,1.418-7.354,4.258-10.172c2.84-2.821,6.256-4.231,10.242-4.231l0,0h43.5
					c3.987,0,7.28,0.509,9.88,1.53c2.598,1.02,5.35,2.911,8.246,5.671l21.752,19.803
					C387.805,135.633,388.591,136.955,388.229,137.915z"/>
			</g>
			<g opacity="0.7848">
				<path fill="#030202" d="M388.938,138.619c-0.361,0.96-2.354,1.441-5.979,1.441H367.91l-6.704-14.403v14.403v126.024
					l-36.25-50.41l-36.251,50.41V136.458v-14.402c0-3.962,1.417-7.354,4.258-10.172c2.84-2.82,6.256-4.23,10.241-4.23l0,0h43.5
					c3.987,0,7.28,0.508,9.88,1.53c2.6,1.021,5.35,2.911,8.247,5.671l21.752,19.803C388.516,136.338,389.3,137.66,388.938,138.619z"
					/>
			</g>
			<g opacity="0.781">
				<path fill="#030202" d="M389.648,139.324c-0.362,0.96-2.355,1.44-5.981,1.44H368.62l-6.704-14.403v14.403v126.024l-36.251-50.41
					l-36.251,50.41V137.163v-14.401c0-3.963,1.418-7.354,4.258-10.173c2.84-2.821,6.256-4.231,10.242-4.231l0,0h43.5
					c3.986,0,7.281,0.509,9.88,1.53s5.351,2.911,8.246,5.671l21.753,19.803C389.225,137.043,390.01,138.364,389.648,139.324z"/>
			</g>
			<g opacity="0.7771">
				<path fill="#030202" d="M390.357,140.029c-0.361,0.959-2.355,1.44-5.981,1.44H369.33l-6.705-14.403v14.403v126.024
					l-36.251-50.41l-36.251,50.41V137.867v-14.401c0-3.963,1.418-7.354,4.258-10.172c2.841-2.82,6.256-4.231,10.243-4.231l0,0h43.5
					c3.985,0,7.28,0.509,9.88,1.53c2.598,1.021,5.35,2.911,8.245,5.671l21.753,19.803
					C389.934,137.748,390.719,139.069,390.357,140.029z"/>
			</g>
			<g opacity="0.7733">
				<path fill="#030202" d="M391.066,140.733c-0.361,0.959-2.354,1.44-5.981,1.44h-15.046l-6.705-14.403v14.403v126.022
					l-36.25-50.409l-36.251,50.409V138.571V124.17c0-3.963,1.417-7.354,4.258-10.173c2.84-2.82,6.256-4.23,10.241-4.23l0,0h43.501
					c3.987,0,7.281,0.509,9.88,1.53c2.598,1.021,5.35,2.911,8.246,5.671l21.753,19.803
					C390.643,138.452,391.428,139.773,391.066,140.733z"/>
			</g>
			<g opacity="0.7695">
				<path fill="#030202" d="M391.775,141.438c-0.361,0.959-2.354,1.441-5.98,1.441h-15.047l-6.704-14.404v14.404v126.023
					l-36.251-50.41l-36.251,50.41V139.276v-14.402c0-3.963,1.418-7.354,4.258-10.172c2.841-2.82,6.256-4.23,10.242-4.23l0,0h43.501
					c3.986,0,7.281,0.508,9.879,1.53c2.598,1.02,5.352,2.911,8.247,5.671l21.753,19.803
					C391.352,139.157,392.139,140.479,391.775,141.438z"/>
			</g>
			<g opacity="0.7657">
				<path fill="#030202" d="M392.486,142.143c-0.362,0.959-2.355,1.441-5.981,1.441h-15.047l-6.704-14.404v14.404v126.023
					l-36.251-50.41l-36.251,50.41V139.981V125.58c0-3.963,1.418-7.354,4.258-10.172c2.84-2.821,6.256-4.231,10.242-4.231l0,0h43.5
					c3.986,0,7.281,0.509,9.88,1.53s5.351,2.911,8.246,5.671l21.753,19.803C392.063,139.862,392.848,141.183,392.486,142.143z"/>
			</g>
			<g opacity="0.7619">
				<path fill="#030202" d="M393.195,142.848c-0.362,0.959-2.355,1.44-5.981,1.44h-15.047l-6.704-14.403v14.403v126.024
					l-36.251-50.41l-36.251,50.41V140.686v-14.401c0-3.963,1.418-7.354,4.258-10.173c2.841-2.82,6.256-4.23,10.242-4.23l0,0h43.5
					c3.987,0,7.282,0.509,9.88,1.53c2.599,1.021,5.351,2.911,8.246,5.671l21.753,19.803
					C392.771,140.566,393.557,141.888,393.195,142.848z"/>
			</g>
			<g opacity="0.7581">
				<path fill="#030202" d="M393.904,143.552c-0.361,0.959-2.355,1.44-5.981,1.44h-15.047l-6.703-14.403v14.403v126.023
					l-36.252-50.41l-36.25,50.41V141.39v-14.401c0-3.963,1.418-7.354,4.257-10.173c2.841-2.821,6.256-4.23,10.242-4.23l0,0h43.5
					c3.988,0,7.281,0.508,9.88,1.53c2.599,1.02,5.351,2.911,8.247,5.671l21.752,19.803
					C393.479,141.271,394.268,142.592,393.904,143.552z"/>
			</g>
			<g opacity="0.7543">
				<path fill="#030202" d="M394.614,144.257c-0.362,0.959-2.355,1.44-5.981,1.44h-15.047l-6.704-14.403v14.403v126.023
					l-36.251-50.41l-36.251,50.41V142.095v-14.401c0-3.963,1.418-7.354,4.258-10.173c2.84-2.82,6.256-4.23,10.242-4.23l0,0h43.5
					c3.987,0,7.281,0.508,9.88,1.53c2.598,1.02,5.35,2.911,8.246,5.671l21.753,19.803
					C394.189,141.976,394.977,143.297,394.614,144.257z"/>
			</g>
			<g opacity="0.7505">
				<path fill="#030202" d="M395.324,144.962c-0.362,0.959-2.355,1.44-5.981,1.44h-15.047l-6.704-14.403v14.403v126.023
					l-36.251-50.409l-36.251,50.409V142.8v-14.402c0-3.962,1.418-7.354,4.258-10.172c2.84-2.82,6.256-4.231,10.242-4.231l0,0h43.5
					c3.987,0,7.281,0.509,9.881,1.53c2.598,1.02,5.35,2.911,8.245,5.671l21.753,19.803
					C394.898,142.681,395.686,144.002,395.324,144.962z"/>
			</g>
			<g opacity="0.7467">
				<path fill="#030202" d="M396.033,145.667c-0.362,0.959-2.355,1.44-5.981,1.44h-15.047l-6.704-14.403v14.403v126.024
					l-36.251-50.41l-36.251,50.41V143.504v-14.402c0-3.962,1.418-7.354,4.258-10.172c2.84-2.82,6.256-4.231,10.242-4.231l0,0h43.5
					c3.987,0,7.281,0.509,9.881,1.53c2.598,1.02,5.35,2.911,8.245,5.671l21.753,19.803
					C395.607,143.385,396.395,144.707,396.033,145.667z"/>
			</g>
			<g opacity="0.7429">
				<path fill="#030202" d="M396.742,146.371c-0.362,0.959-2.355,1.44-5.98,1.44h-15.048l-6.704-14.403v14.403v126.024
					l-36.251-50.41l-36.25,50.41V144.209v-14.402c0-3.963,1.417-7.354,4.258-10.173c2.839-2.82,6.256-4.23,10.242-4.23l0,0h43.499
					c3.987,0,7.281,0.509,9.881,1.53c2.598,1.021,5.351,2.911,8.246,5.671l21.752,19.803
					C396.317,144.089,397.104,145.411,396.742,146.371z"/>
			</g>
			<g opacity="0.739">
				<path fill="#030202" d="M397.452,147.075c-0.362,0.96-2.354,1.441-5.981,1.441h-15.047l-6.703-14.404v14.404V274.54
					l-36.252-50.41l-36.251,50.41V144.914v-14.401c0-3.963,1.418-7.354,4.258-10.173c2.84-2.82,6.256-4.231,10.242-4.231l0,0h43.5
					c3.987,0,7.281,0.509,9.88,1.53c2.598,1.02,5.351,2.911,8.246,5.671l21.754,19.803
					C397.027,144.794,397.813,146.116,397.452,147.075z"/>
			</g>
			<g opacity="0.7352">
				<path fill="#030202" d="M398.162,147.78c-0.362,0.959-2.355,1.441-5.98,1.441h-15.048l-6.704-14.404v14.404v126.024
					l-36.25-50.41l-36.252,50.41V145.619v-14.402c0-3.963,1.418-7.354,4.258-10.172c2.84-2.821,6.256-4.231,10.242-4.231l0,0h43.5
					c3.987,0,7.281,0.509,9.881,1.53c2.598,1.021,5.35,2.911,8.246,5.671l21.752,19.803
					C397.737,145.5,398.523,146.82,398.162,147.78z"/>
			</g>
			<g opacity="0.7314">
				<path fill="#030202" d="M398.871,148.485c-0.362,0.959-2.355,1.44-5.98,1.44h-15.048l-6.704-14.403v14.403v126.024l-36.25-50.41
					l-36.251,50.41V146.323v-14.402c0-3.963,1.418-7.354,4.258-10.173c2.84-2.82,6.256-4.23,10.242-4.23l0,0h43.5
					c3.987,0,7.281,0.509,9.881,1.53c2.598,1.021,5.35,2.911,8.246,5.671l21.752,19.803
					C398.446,146.204,399.232,147.525,398.871,148.485z"/>
			</g>
			<g opacity="0.7276">
				<path fill="#030202" d="M399.58,149.189c-0.362,0.959-2.355,1.44-5.98,1.44h-15.048l-6.704-14.403v14.403v126.023l-36.25-50.409
					l-36.251,50.409V147.027v-14.401c0-3.963,1.418-7.354,4.258-10.173c2.84-2.82,6.256-4.23,10.243-4.23l0,0h43.499
					c3.988,0,7.281,0.509,9.881,1.53c2.599,1.02,5.351,2.911,8.246,5.671l21.752,19.803
					C399.156,146.908,399.941,148.229,399.58,149.189z"/>
			</g>
			<g opacity="0.7238">
				<path fill="#030202" d="M400.29,149.895c-0.362,0.959-2.355,1.44-5.981,1.44h-15.047l-6.703-14.403v14.403v126.024
					l-36.252-50.41l-36.25,50.41V147.732v-14.401c0-3.963,1.418-7.354,4.258-10.173c2.84-2.82,6.256-4.23,10.242-4.23l0,0h43.5
					c3.986,0,7.28,0.509,9.879,1.53c2.599,1.02,5.351,2.911,8.246,5.671l21.753,19.803
					C399.865,147.613,400.651,148.934,400.29,149.895z"/>
			</g>
			<g opacity="0.72">
				<path fill="#030202" d="M401,150.599c-0.362,0.96-2.355,1.44-5.98,1.44h-15.047l-6.705-14.403v14.403v126.023l-36.25-50.41
					l-36.251,50.41V148.438v-14.402c0-3.962,1.418-7.354,4.258-10.173c2.84-2.82,6.256-4.23,10.242-4.23l0,0h43.5
					c3.987,0,7.281,0.509,9.881,1.529c2.598,1.021,5.35,2.911,8.246,5.671l21.752,19.803
					C400.575,148.318,401.361,149.64,401,150.599z"/>
			</g>
			<g opacity="0.7162">
				<path fill="#030202" d="M401.709,151.304c-0.362,0.959-2.355,1.44-5.98,1.44h-15.047l-6.705-14.403v14.403v126.023l-36.25-50.41
					l-36.251,50.41V149.142V134.74c0-3.963,1.418-7.354,4.258-10.173c2.84-2.82,6.256-4.23,10.242-4.23l0,0h43.5
					c3.987,0,7.281,0.509,9.881,1.53c2.598,1.021,5.35,2.911,8.246,5.671l21.752,19.803
					C401.284,149.022,402.07,150.344,401.709,151.304z"/>
			</g>
			<g opacity="0.7124">
				<path fill="#030202" d="M402.418,152.008c-0.362,0.959-2.355,1.44-5.98,1.44h-15.047l-6.705-14.404v14.404v126.024l-36.25-50.41
					l-36.251,50.41V149.846v-14.402c0-3.962,1.418-7.354,4.258-10.172c2.84-2.821,6.256-4.23,10.243-4.23l0,0h43.499
					c3.987,0,7.281,0.509,9.881,1.53c2.598,1.021,5.35,2.911,8.246,5.671l21.752,19.803
					C401.993,149.727,402.779,151.048,402.418,152.008z"/>
			</g>
			<g opacity="0.7086">
				<path fill="#030202" d="M403.128,152.713c-0.362,0.959-2.354,1.44-5.98,1.44H382.1l-6.703-14.403v14.403v126.024l-36.252-50.409
					l-36.25,50.409V150.551V136.15c0-3.963,1.418-7.354,4.258-10.173c2.84-2.82,6.256-4.23,10.242-4.23l0,0h43.5
					c3.986,0,7.28,0.509,9.879,1.529c2.599,1.021,5.351,2.911,8.246,5.671l21.754,19.803
					C402.703,150.432,403.489,151.753,403.128,152.713z"/>
			</g>
			<g opacity="0.7048">
				<path fill="#030202" d="M403.838,153.418c-0.362,0.959-2.354,1.44-5.98,1.44h-15.047l-6.705-14.404v14.404v126.023
					l-36.252-50.408l-36.25,50.408V151.256v-14.401c0-3.963,1.418-7.354,4.258-10.173c2.84-2.82,6.256-4.231,10.242-4.231l0,0h43.5
					c3.987,0,7.281,0.508,9.881,1.53c2.598,1.021,5.35,2.911,8.246,5.671l21.753,19.803
					C403.413,151.137,404.199,152.458,403.838,153.418z"/>
			</g>
			<g opacity="0.701">
				<path fill="#030202" d="M404.547,154.123c-0.362,0.959-2.354,1.44-5.98,1.44H383.52l-6.705-14.403v14.403v126.023l-36.25-50.409
					l-36.251,50.409V151.96v-14.402c0-3.962,1.418-7.354,4.258-10.172c2.84-2.82,6.256-4.231,10.242-4.231l0,0h43.5
					c3.987,0,7.281,0.509,9.881,1.53c2.598,1.021,5.35,2.91,8.246,5.671l21.753,19.802
					C404.122,151.841,404.908,153.163,404.547,154.123z"/>
			</g>
			<g opacity="0.6971">
				<path fill="#030202" d="M405.256,154.827c-0.362,0.959-2.354,1.44-5.98,1.44h-15.047l-6.705-14.403v14.403v126.024l-36.25-50.41
					l-36.251,50.41V152.665v-14.402c0-3.963,1.418-7.354,4.258-10.173c2.84-2.82,6.256-4.23,10.242-4.23l0,0h43.5
					c3.987,0,7.281,0.509,9.881,1.53c2.598,1.021,5.35,2.911,8.246,5.671l21.753,19.803
					C404.831,152.545,405.617,153.867,405.256,154.827z"/>
			</g>
			<g opacity="0.6933">
				<path fill="#030202" d="M405.966,155.531c-0.362,0.96-2.354,1.44-5.98,1.44h-15.048l-6.705-14.403v14.403v126.024l-36.25-50.41
					l-36.25,50.41V153.37v-14.402c0-3.962,1.418-7.354,4.258-10.172c2.84-2.82,6.256-4.231,10.242-4.231l0,0h43.5
					c3.986,0,7.281,0.508,9.879,1.53c2.599,1.021,5.351,2.911,8.246,5.671l21.754,19.803
					C405.541,153.25,406.327,154.572,405.966,155.531z"/>
			</g>
			<g opacity="0.6895">
				<path fill="#030202" d="M406.675,156.236c-0.36,0.96-2.354,1.44-5.979,1.44h-15.049l-6.703-14.403v14.403V283.7l-36.25-50.41
					l-36.251,50.41V154.075v-14.401c0-3.963,1.418-7.354,4.258-10.173c2.84-2.821,6.256-4.231,10.241-4.231l0,0h43.5
					c3.987,0,7.281,0.508,9.881,1.53c2.598,1.02,5.35,2.91,8.246,5.671l21.753,19.802
					C406.251,153.956,407.037,155.277,406.675,156.236z"/>
			</g>
			<g opacity="0.6857">
				<path fill="#030202" d="M407.385,156.941c-0.361,0.96-2.354,1.44-5.98,1.44h-15.047l-6.705-14.403v14.403v126.023L343.4,233.995
					l-36.25,50.409V154.779v-14.402c0-3.962,1.418-7.354,4.258-10.173c2.84-2.82,6.256-4.23,10.241-4.23l0,0h43.5
					c3.988,0,7.281,0.508,9.881,1.529c2.598,1.021,5.35,2.911,8.246,5.671l21.753,19.803
					C406.96,154.66,407.746,155.981,407.385,156.941z"/>
			</g>
			<g opacity="0.6819">
				<path fill="#030202" d="M408.094,157.646c-0.361,0.959-2.354,1.44-5.98,1.44h-15.047l-6.705-14.404v14.404v126.023l-36.25-50.41
					l-36.251,50.41V155.483v-14.401c0-3.962,1.418-7.354,4.258-10.173c2.84-2.82,6.256-4.23,10.241-4.23l0,0h43.5
					c3.988,0,7.281,0.509,9.881,1.53c2.598,1.02,5.35,2.911,8.246,5.671l21.753,19.803
					C407.669,155.364,408.455,156.686,408.094,157.646z"/>
			</g>
			<g opacity="0.6781">
				<path fill="#030202" d="M408.804,158.351c-0.361,0.959-2.354,1.44-5.98,1.44h-15.048l-6.703-14.404v14.404v126.023
					l-36.252-50.41l-36.25,50.41V156.188v-14.402c0-3.962,1.418-7.354,4.258-10.172c2.84-2.82,6.255-4.23,10.242-4.23l0,0h43.498
					c3.988,0,7.283,0.508,9.882,1.53c2.598,1.02,5.35,2.911,8.245,5.671l21.754,19.803
					C408.379,156.069,409.165,157.391,408.804,158.351z"/>
			</g>
			<g opacity="0.6743">
				<path fill="#030202" d="M409.514,159.055c-0.361,0.959-2.354,1.44-5.981,1.44h-15.048l-6.703-14.403v14.403V286.52
					l-36.252-50.41l-36.25,50.41V156.894v-14.401c0-3.963,1.417-7.354,4.257-10.173c2.84-2.82,6.257-4.23,10.242-4.23l0,0h43.5
					c3.988,0,7.281,0.508,9.88,1.529c2.598,1.021,5.351,2.911,8.247,5.671l21.753,19.803
					C409.089,156.774,409.875,158.096,409.514,159.055z"/>
			</g>
			<g opacity="0.6705">
				<path fill="#030202" d="M410.223,159.76c-0.361,0.959-2.354,1.44-5.98,1.44h-15.047l-6.704-14.404V161.2v126.022l-36.251-50.408
					l-36.251,50.408V157.598v-14.401c0-3.963,1.418-7.354,4.258-10.173c2.84-2.82,6.256-4.23,10.241-4.23l0,0h43.5
					c3.988,0,7.281,0.509,9.881,1.53c2.598,1.02,5.35,2.911,8.246,5.671l21.753,19.803
					C409.798,157.479,410.584,158.8,410.223,159.76z"/>
			</g>
			<g opacity="0.6667">
				<path fill="#030202" d="M410.932,160.464c-0.361,0.959-2.354,1.44-5.98,1.44h-15.047l-6.704-14.403v14.403v126.023
					l-36.251-50.409l-36.251,50.409V158.302V143.9c0-3.962,1.418-7.353,4.258-10.172c2.84-2.821,6.256-4.23,10.242-4.23l0,0h43.5
					c3.987,0,7.28,0.508,9.88,1.529c2.598,1.02,5.35,2.911,8.246,5.671l21.753,19.803
					C410.507,158.183,411.293,159.504,410.932,160.464z"/>
			</g>
			<g opacity="0.6629">
				<path fill="#030202" d="M411.642,161.169c-0.361,0.959-2.354,1.44-5.98,1.44h-15.047l-6.705-14.403v14.403v126.023
					l-36.251-50.409l-36.25,50.409V159.007v-14.401c0-3.963,1.417-7.354,4.257-10.173c2.84-2.82,6.257-4.23,10.243-4.23l0,0h43.5
					c3.986,0,7.281,0.508,9.88,1.529s5.351,2.911,8.246,5.671l21.753,19.803C411.217,158.888,412.003,160.209,411.642,161.169z"/>
			</g>
			<g opacity="0.659">
				<path fill="#030202" d="M412.352,161.874c-0.362,0.96-2.354,1.44-5.981,1.44h-15.047l-6.704-14.404v14.404v126.023
					l-36.251-50.409l-36.251,50.409V159.712v-14.401c0-3.963,1.418-7.354,4.258-10.173c2.84-2.82,6.257-4.23,10.243-4.23l0,0h43.499
					c3.986,0,7.281,0.508,9.88,1.529c2.598,1.02,5.351,2.911,8.247,5.671l21.753,19.803
					C411.927,159.593,412.712,160.914,412.352,161.874z"/>
			</g>
			<g opacity="0.6552">
				<path fill="#030202" d="M413.061,162.579c-0.361,0.959-2.354,1.44-5.98,1.44h-15.047l-6.705-14.403v14.403v126.023
					l-36.251-50.409l-36.25,50.409V160.417v-14.402c0-3.962,1.417-7.354,4.258-10.172c2.84-2.82,6.256-4.231,10.242-4.231l0,0h43.5
					c3.987,0,7.28,0.508,9.88,1.53c2.598,1.02,5.35,2.911,8.246,5.671l21.753,19.802
					C412.636,160.297,413.422,161.618,413.061,162.579z"/>
			</g>
			<g opacity="0.6514">
				<path fill="#030202" d="M413.77,163.283c-0.361,0.959-2.354,1.44-5.98,1.44h-15.047l-6.704-14.403v14.403v126.024l-36.251-50.41
					l-36.251,50.41V161.121v-14.402c0-3.963,1.418-7.354,4.258-10.173c2.84-2.82,6.256-4.23,10.242-4.23l0,0h43.5
					c3.987,0,7.28,0.508,9.88,1.529c2.598,1.021,5.35,2.911,8.246,5.672l21.753,19.803
					C413.345,161.001,414.131,162.323,413.77,163.283z"/>
			</g>
			<g opacity="0.6476">
				<path fill="#030202" d="M414.479,163.988c-0.361,0.959-2.355,1.44-5.98,1.44h-15.047l-6.704-14.404v14.404v126.024
					l-36.251-50.41l-36.251,50.41V161.826v-14.401c0-3.962,1.417-7.354,4.258-10.173c2.839-2.82,6.256-4.231,10.242-4.231l0,0h43.5
					c3.987,0,7.28,0.509,9.88,1.53c2.598,1.02,5.35,2.911,8.246,5.671l21.752,19.803
					C414.055,161.707,414.841,163.028,414.479,163.988z"/>
			</g>
			<g opacity="0.6438">
				<path fill="#030202" d="M415.188,164.692c-0.361,0.96-2.354,1.44-5.98,1.44H394.16l-6.704-14.403v14.403v126.022l-36.251-50.408
					l-36.25,50.408V162.531v-14.402c0-3.962,1.417-7.353,4.258-10.172c2.839-2.821,6.255-4.231,10.241-4.231l0,0h43.5
					c3.987,0,7.282,0.509,9.881,1.53c2.597,1.02,5.349,2.911,8.246,5.671l21.752,19.803
					C414.764,162.412,415.551,163.732,415.188,164.692z"/>
			</g>
			<g opacity="0.64">
				<path fill="#030202" d="M415.898,165.397c-0.362,0.959-2.355,1.44-5.981,1.44H394.87l-6.705-14.403v14.403v126.024
					l-36.251-50.41l-36.25,50.41V163.235v-14.401c0-3.963,1.417-7.354,4.257-10.173c2.841-2.82,6.257-4.23,10.243-4.23l0,0h43.5
					c3.986,0,7.281,0.508,9.88,1.529c2.597,1.021,5.351,2.911,8.245,5.672l21.754,19.802
					C415.474,163.116,416.26,164.438,415.898,165.397z"/>
			</g>
			<g opacity="0.6362">
				<path fill="#030202" d="M416.607,166.102c-0.362,0.959-2.355,1.44-5.981,1.44h-15.047l-6.704-14.404v14.404v126.022
					l-36.251-50.408l-36.251,50.408V163.939v-14.401c0-3.962,1.418-7.354,4.258-10.173c2.84-2.82,6.256-4.23,10.242-4.23l0,0h43.5
					c3.986,0,7.281,0.509,9.88,1.53s5.351,2.911,8.246,5.671l21.753,19.803C416.183,163.82,416.969,165.142,416.607,166.102z"/>
			</g>
			<g opacity="0.6324">
				<path fill="#030202" d="M417.316,166.807c-0.361,0.959-2.354,1.44-5.98,1.44h-15.047l-6.705-14.403v14.403v126.024
					l-36.251-50.41l-36.25,50.41V164.645v-14.401c0-3.963,1.417-7.354,4.258-10.173c2.839-2.82,6.255-4.23,10.242-4.23l0,0h43.5
					c3.987,0,7.28,0.509,9.88,1.53c2.598,1.02,5.35,2.91,8.246,5.671l21.753,19.803
					C416.893,164.525,417.678,165.847,417.316,166.807z"/>
			</g>
			<g opacity="0.6286">
				<path fill="#030202" d="M418.026,167.512c-0.362,0.959-2.355,1.44-5.981,1.44h-15.047l-6.704-14.403v14.403v126.024
					l-36.251-50.41l-36.25,50.41V165.35v-14.402c0-3.962,1.417-7.354,4.257-10.173c2.841-2.82,6.257-4.23,10.242-4.23l0,0h43.5
					c3.987,0,7.282,0.509,9.881,1.529c2.597,1.021,5.349,2.911,8.245,5.672l21.753,19.802
					C417.602,165.23,418.388,166.551,418.026,167.512z"/>
			</g>
			<g opacity="0.6248">
				<path fill="#030202" d="M418.735,168.216c-0.361,0.96-2.355,1.44-5.98,1.44h-15.047l-6.705-14.404v14.404V295.68l-36.251-50.408
					l-36.25,50.408V166.054v-14.402c0-3.962,1.417-7.353,4.258-10.172c2.84-2.82,6.256-4.23,10.242-4.23l0,0h43.5
					c3.986,0,7.28,0.508,9.88,1.529c2.597,1.021,5.349,2.911,8.246,5.671l21.752,19.803
					C418.313,165.935,419.097,167.256,418.735,168.216z"/>
			</g>
			<g opacity="0.621">
				<path fill="#030202" d="M419.445,168.92c-0.362,0.959-2.355,1.44-5.981,1.44h-15.047l-6.705-14.404v14.404v126.023
					l-36.251-50.408l-36.25,50.408V166.758v-14.402c0-3.962,1.417-7.353,4.257-10.172c2.841-2.821,6.257-4.23,10.243-4.23l0,0h43.5
					c3.987,0,7.281,0.508,9.88,1.529c2.597,1.021,5.351,2.91,8.246,5.671l21.753,19.802
					C419.021,166.639,419.807,167.96,419.445,168.92z"/>
			</g>
			<g opacity="0.6171">
				<path fill="#030202" d="M420.154,169.625c-0.361,0.959-2.355,1.44-5.98,1.44h-15.047l-6.705-14.403v14.403v126.023
					l-36.251-50.408l-36.251,50.408V167.463v-14.401c0-3.963,1.418-7.354,4.258-10.173c2.84-2.82,6.256-4.23,10.243-4.23l0,0h43.499
					c3.987,0,7.282,0.508,9.881,1.529c2.598,1.021,5.35,2.911,8.246,5.672l21.752,19.803
					C419.73,167.344,420.517,168.665,420.154,169.625z"/>
			</g>
			<g opacity="0.6133">
				<path fill="#030202" d="M420.864,170.33c-0.362,0.959-2.355,1.44-5.981,1.44h-15.047l-6.704-14.403v14.403v126.024
					l-36.251-50.409l-36.251,50.409V168.168v-14.401c0-3.963,1.418-7.354,4.259-10.173c2.84-2.82,6.256-4.229,10.241-4.229l0,0h43.5
					c3.987,0,7.281,0.508,9.88,1.529c2.598,1.021,5.35,2.91,8.246,5.671l21.753,19.803
					C420.439,168.049,421.226,169.37,420.864,170.33z"/>
			</g>
			<g opacity="0.6095">
				<path fill="#030202" d="M421.573,171.035c-0.361,0.959-2.354,1.44-5.981,1.44h-15.046l-6.705-14.403v14.403v126.023
					l-36.251-50.409l-36.25,50.409V168.873v-14.402c0-3.962,1.417-7.354,4.258-10.172c2.84-2.82,6.256-4.231,10.242-4.231l0,0
					h43.499c3.988,0,7.282,0.508,9.88,1.53c2.598,1.02,5.35,2.91,8.247,5.671l21.753,19.803
					C421.148,168.753,421.935,170.075,421.573,171.035z"/>
			</g>
			<g opacity="0.6057">
				<path fill="#030202" d="M422.283,171.739c-0.362,0.959-2.355,1.44-5.981,1.44h-15.047l-6.705-14.403v14.403v126.024
					l-36.251-50.409l-36.25,50.409V169.577v-14.401c0-3.963,1.417-7.354,4.258-10.173c2.84-2.82,6.256-4.23,10.242-4.23l0,0h43.5
					c3.987,0,7.281,0.508,9.881,1.529c2.598,1.021,5.35,2.911,8.245,5.672l21.753,19.803
					C421.858,169.458,422.645,170.779,422.283,171.739z"/>
			</g>
			<g opacity="0.6019">
				<path fill="#030202" d="M422.992,172.444c-0.361,0.959-2.355,1.439-5.98,1.439h-15.047l-6.705-14.403v14.403v126.024
					l-36.251-50.41l-36.251,50.41V170.282V155.88c0-3.962,1.418-7.354,4.258-10.172c2.84-2.82,6.256-4.231,10.243-4.231v0.001
					h43.499c3.988,0,7.282,0.508,9.881,1.529c2.598,1.021,5.35,2.91,8.246,5.671l21.752,19.803
					C422.568,170.163,423.354,171.484,422.992,172.444z"/>
			</g>
			<g opacity="0.5981">
				<path fill="#030202" d="M423.702,173.148c-0.362,0.96-2.355,1.44-5.981,1.44h-15.047l-6.703-14.403v14.403v126.023
					l-36.252-50.409l-36.251,50.409V170.987v-14.401c0-3.962,1.418-7.354,4.259-10.172c2.84-2.821,6.256-4.231,10.241-4.231l0,0
					h43.5c3.987,0,7.281,0.508,9.88,1.53c2.598,1.02,5.351,2.91,8.246,5.671l21.753,19.803
					C423.277,170.868,424.063,172.189,423.702,173.148z"/>
			</g>
			<g opacity="0.5943">
				<path fill="#030202" d="M424.412,173.853c-0.363,0.959-2.356,1.441-5.982,1.441h-15.046l-6.705-14.404v14.404v126.022
					l-36.251-50.408l-36.25,50.408V171.691V157.29c0-3.962,1.418-7.353,4.258-10.172c2.84-2.82,6.256-4.231,10.242-4.231l0,0h43.499
					c3.987,0,7.282,0.508,9.88,1.529s5.351,2.91,8.247,5.672l21.752,19.803C423.986,171.572,424.772,172.894,424.412,173.853z"/>
			</g>
			<g opacity="0.5905">
				<path fill="#030202" d="M425.12,174.558c-0.361,0.96-2.354,1.44-5.98,1.44h-15.048l-6.704-14.404v14.404v126.023l-36.251-50.41
					l-36.25,50.41V172.396v-14.401c0-3.963,1.417-7.354,4.258-10.173c2.84-2.82,6.256-4.23,10.242-4.23l0,0h43.5
					c3.987,0,7.281,0.509,9.879,1.53c2.598,1.02,5.351,2.911,8.246,5.671l21.754,19.803
					C424.696,172.276,425.481,173.598,425.12,174.558z"/>
			</g>
			<g opacity="0.5867">
				<path fill="#030202" d="M425.83,175.263c-0.361,0.959-2.355,1.44-5.98,1.44h-15.047l-6.705-14.403v14.403v126.023l-36.25-50.41
					l-36.25,50.41V173.101V158.7c0-3.963,1.416-7.354,4.256-10.173c2.84-2.82,6.256-4.23,10.242-4.23l0,0h43.5
					c3.988,0,7.281,0.509,9.881,1.529c2.598,1.021,5.35,2.911,8.246,5.672l21.752,19.803
					C425.406,172.981,426.191,174.303,425.83,175.263z"/>
			</g>
			<g opacity="0.5829">
				<path fill="#030202" d="M426.54,175.968c-0.362,0.959-2.355,1.439-5.981,1.439h-15.047l-6.705-14.403v14.403v126.024
					l-36.25-50.41l-36.25,50.41V173.806v-14.402c0-3.962,1.418-7.353,4.258-10.172c2.84-2.82,6.256-4.231,10.242-4.231l0,0h43.5
					c3.986,0,7.28,0.508,9.879,1.529s5.351,2.91,8.246,5.672l21.753,19.803C426.115,173.687,426.901,175.008,426.54,175.968z"/>
			</g>
			<g opacity="0.579">
				<path fill="#030202" d="M427.249,176.672c-0.362,0.959-2.354,1.44-5.981,1.44h-15.047l-6.704-14.404v14.404v126.023
					l-36.251-50.408l-36.25,50.408V174.51v-14.401c0-3.963,1.418-7.354,4.258-10.173c2.84-2.82,6.256-4.23,10.242-4.23l0,0h43.5
					c3.986,0,7.281,0.508,9.879,1.529c2.599,1.02,5.351,2.911,8.246,5.671l21.754,19.803
					C426.824,174.391,427.61,175.712,427.249,176.672z"/>
			</g>
			<g opacity="0.5752">
				<path fill="#030202" d="M427.959,177.376c-0.363,0.959-2.355,1.44-5.982,1.44H406.93l-6.704-14.403v14.403V304.84
					l-36.251-50.408l-36.25,50.408V175.214v-14.402c0-3.962,1.418-7.353,4.258-10.172c2.84-2.821,6.256-4.231,10.242-4.231v0.001
					h43.5c3.987,0,7.281,0.508,9.879,1.529c2.599,1.02,5.351,2.91,8.246,5.671l21.753,19.803
					C427.533,175.096,428.32,176.416,427.959,177.376z"/>
			</g>
			<g opacity="0.5714">
				<path fill="#030202" d="M428.668,178.082c-0.362,0.959-2.355,1.44-5.98,1.44h-15.047l-6.705-14.403v14.403v126.023
					l-36.25-50.408l-36.252,50.408V175.919v-14.401c0-3.962,1.418-7.354,4.258-10.173c2.841-2.82,6.257-4.23,10.242-4.23v0.001h43.5
					c3.987,0,7.281,0.508,9.881,1.529c2.598,1.02,5.35,2.91,8.245,5.671l21.754,19.803
					C428.243,175.8,429.029,177.122,428.668,178.082z"/>
			</g>
			<g opacity="0.5676">
				<path fill="#030202" d="M429.378,178.786c-0.362,0.959-2.354,1.44-5.98,1.44H408.35l-6.705-14.404v14.404V306.25l-36.25-50.409
					l-36.25,50.409V176.624v-14.401c0-3.962,1.416-7.354,4.258-10.173c2.84-2.82,6.256-4.23,10.242-4.23v0.001h43.5
					c3.986,0,7.28,0.508,9.88,1.529c2.598,1.02,5.35,2.911,8.245,5.671l21.754,19.803
					C428.953,176.505,429.739,177.826,429.378,178.786z"/>
			</g>
			<g opacity="0.5638">
				<path fill="#030202" d="M430.087,179.491c-0.362,0.959-2.354,1.438-5.98,1.438h-15.048l-6.703-14.403v14.403v126.023
					l-36.252-50.409l-36.25,50.409V177.329v-14.402c0-3.962,1.418-7.354,4.258-10.172c2.84-2.821,6.256-4.231,10.242-4.231l0,0h43.5
					c3.986,0,7.281,0.508,9.88,1.529c2.598,1.02,5.35,2.91,8.245,5.671l21.754,19.803
					C429.662,177.209,430.448,178.531,430.087,179.491z"/>
			</g>
			<g opacity="0.56">
				<path fill="#030202" d="M430.796,180.195c-0.362,0.959-2.354,1.44-5.98,1.44h-15.048l-6.703-14.404v14.404v126.022
					l-36.252-50.408l-36.25,50.408V178.033v-14.402c0-3.962,1.418-7.354,4.258-10.172c2.84-2.82,6.256-4.231,10.242-4.231v0.001
					h43.5c3.986,0,7.281,0.508,9.881,1.529c2.597,1.021,5.349,2.91,8.244,5.672l21.755,19.803
					C430.371,177.914,431.157,179.235,430.796,180.195z"/>
			</g>
			<g opacity="0.5562">
				<path fill="#030202" d="M431.506,180.9c-0.362,0.959-2.354,1.438-5.98,1.438h-15.046l-6.705-14.403v14.403v126.023
					l-36.251-50.409l-36.252,50.409V178.738v-14.402c0-3.962,1.418-7.353,4.259-10.172c2.84-2.821,6.256-4.231,10.241-4.231v0.001
					h43.5c3.988,0,7.281,0.508,9.881,1.529c2.598,1.021,5.35,2.91,8.246,5.672l21.753,19.803
					C431.081,178.619,431.867,179.94,431.506,180.9z"/>
			</g>
			<g opacity="0.5524">
				<path fill="#030202" d="M432.216,181.604c-0.362,0.961-2.354,1.44-5.98,1.44h-15.047l-6.705-14.403v14.403v126.023
					l-36.251-50.409l-36.25,50.409V179.443v-14.402c0-3.962,1.416-7.353,4.258-10.172c2.84-2.821,6.256-4.231,10.242-4.231v0.001
					h43.5c3.986,0,7.28,0.508,9.88,1.529c2.598,1.021,5.35,2.91,8.246,5.671l21.753,19.804
					C431.791,179.324,432.577,180.645,432.216,181.604z"/>
			</g>
			<g opacity="0.5486">
				<path fill="#030202" d="M432.925,182.311c-0.362,0.959-2.354,1.439-5.98,1.439h-15.047l-6.705-14.404v14.404v126.023
					l-36.251-50.41l-36.25,50.41V180.147v-14.402c0-3.962,1.418-7.353,4.258-10.172c2.84-2.82,6.256-4.231,10.242-4.231l0,0h43.5
					c3.986,0,7.28,0.509,9.88,1.529c2.598,1.021,5.35,2.91,8.246,5.672l21.753,19.803C432.5,180.028,433.286,181.35,432.925,182.311
					z"/>
			</g>
			<g opacity="0.5448">
				<path fill="#030202" d="M433.634,183.014c-0.36,0.959-2.354,1.44-5.98,1.44h-15.047l-6.704-14.404v14.404v126.022
					l-36.252-50.408l-36.25,50.408V180.852V166.45c0-3.963,1.418-7.354,4.258-10.173c2.84-2.82,6.256-4.23,10.242-4.23l0,0h43.5
					c3.986,0,7.28,0.508,9.881,1.529c2.597,1.02,5.349,2.91,8.246,5.671l21.752,19.803
					C433.21,180.732,433.995,182.055,433.634,183.014z"/>
			</g>
			<g opacity="0.541">
				<path fill="#030202" d="M434.344,183.719c-0.361,0.959-2.354,1.44-5.98,1.44h-15.046l-6.705-14.404v14.404v126.022
					l-36.251-50.408l-36.252,50.408V181.557v-14.402c0-3.962,1.418-7.353,4.259-10.172c2.84-2.82,6.256-4.23,10.241-4.23l0,0h43.5
					c3.987,0,7.281,0.509,9.882,1.529c2.597,1.021,5.349,2.911,8.245,5.672l21.753,19.803
					C433.919,181.438,434.705,182.759,434.344,183.719z"/>
			</g>
			<g opacity="0.5371">
				<path fill="#030202" d="M435.053,184.424c-0.36,0.959-2.354,1.439-5.979,1.439h-15.047l-6.705-14.403v14.403v126.022
					l-36.251-50.407l-36.25,50.407V182.262V167.86c0-3.962,1.416-7.353,4.258-10.172c2.84-2.82,6.255-4.231,10.242-4.231l0,0h43.498
					c3.988,0,7.282,0.509,9.882,1.529c2.598,1.021,5.35,2.911,8.246,5.672l21.752,19.803
					C434.629,182.143,435.414,183.464,435.053,184.424z"/>
			</g>
			<g opacity="0.5333">
				<path fill="#030202" d="M435.763,185.128c-0.361,0.96-2.354,1.44-5.98,1.44h-15.047l-6.704-14.404v14.404v126.022
					l-36.252-50.409l-36.25,50.409V182.966v-14.401c0-3.962,1.416-7.353,4.258-10.173c2.84-2.82,6.256-4.23,10.242-4.23l0,0h43.5
					c3.986,0,7.28,0.508,9.88,1.529c2.598,1.02,5.35,2.91,8.246,5.671l21.753,19.803
					C435.338,182.848,436.124,184.168,435.763,185.128z"/>
			</g>
			<g opacity="0.5295">
				<path fill="#030202" d="M436.472,185.832c-0.361,0.96-2.354,1.441-5.98,1.441h-15.047l-6.704-14.404v14.404v126.021
					l-36.252-50.409l-36.25,50.409V183.67v-14.401c0-3.962,1.416-7.353,4.258-10.172c2.84-2.821,6.256-4.231,10.242-4.231v0.001
					h43.5c3.986,0,7.281,0.508,9.88,1.529c2.598,1.02,5.35,2.91,8.247,5.672l21.752,19.802
					C436.047,183.552,436.833,184.873,436.472,185.832z"/>
			</g>
			<g opacity="0.5257">
				<path fill="#030202" d="M437.182,186.537c-0.361,0.959-2.354,1.439-5.98,1.439h-15.047l-6.704-14.402v14.402V314l-36.252-50.409
					L336.948,314V184.375v-14.401c0-3.962,1.418-7.353,4.258-10.173c2.84-2.82,6.256-4.23,10.242-4.23v0.001h43.5
					c3.986,0,7.28,0.508,9.88,1.529c2.597,1.021,5.35,2.91,8.246,5.671l21.753,19.803
					C436.758,184.256,437.543,185.578,437.182,186.537z"/>
			</g>
			<g opacity="0.5219">
				<path fill="#030202" d="M437.891,187.242c-0.36,0.96-2.354,1.439-5.979,1.439h-15.047l-6.705-14.404v14.404v126.023
					l-36.251-50.409l-36.25,50.409V185.08v-14.401c0-3.962,1.417-7.354,4.257-10.173c2.841-2.82,6.257-4.23,10.243-4.23v0.001
					h43.499c3.987,0,7.282,0.508,9.881,1.529c2.598,1.02,5.35,2.91,8.246,5.671l21.753,19.803
					C437.467,184.961,438.253,186.282,437.891,187.242z"/>
			</g>
			<g opacity="0.5181">
				<path fill="#030202" d="M438.601,187.947c-0.361,0.959-2.355,1.438-5.98,1.438h-15.047l-6.705-14.403v14.403V315.41
					l-36.251-50.409l-36.25,50.409V185.785v-14.402c0-3.962,1.417-7.353,4.258-10.172c2.84-2.821,6.256-4.231,10.242-4.231l0,0h43.5
					c3.987,0,7.281,0.508,9.88,1.529c2.598,1.02,5.35,2.91,8.246,5.672l21.752,19.803
					C438.176,185.666,438.962,186.986,438.601,187.947z"/>
			</g>
			<g opacity="0.5143">
				<path fill="#030202" d="M439.31,188.65c-0.361,0.959-2.354,1.44-5.98,1.44h-15.047l-6.705-14.404v14.404v126.022l-36.25-50.409
					l-36.25,50.409V186.489v-14.401c0-3.963,1.417-7.354,4.257-10.173c2.84-2.82,6.256-4.231,10.242-4.231v0.001h43.5
					c3.987,0,7.282,0.508,9.88,1.529s5.35,2.91,8.246,5.672l21.753,19.804C438.885,186.37,439.671,187.691,439.31,188.65z"/>
			</g>
			<g opacity="0.5105">
				<path fill="#030202" d="M440.02,189.355c-0.361,0.959-2.354,1.44-5.98,1.44h-15.047l-6.705-14.404v14.404v126.022
					l-36.251-50.409l-36.25,50.409V187.193v-14.401c0-3.962,1.417-7.353,4.258-10.172c2.84-2.82,6.256-4.231,10.242-4.231v0.001
					h43.5c3.987,0,7.281,0.508,9.88,1.529c2.598,1.02,5.35,2.91,8.246,5.672l21.753,19.804
					C439.595,187.074,440.381,188.396,440.02,189.355z"/>
			</g>
			<g opacity="0.5067">
				<path fill="#030202" d="M440.729,190.061c-0.36,0.961-2.354,1.44-5.979,1.44h-15.047l-6.705-14.403v14.403v126.023
					l-36.251-50.409l-36.25,50.409V187.898v-14.401c0-3.962,1.417-7.353,4.257-10.172c2.84-2.821,6.256-4.231,10.243-4.231v0.001
					h43.499c3.988,0,7.282,0.508,9.881,1.529c2.598,1.02,5.349,2.91,8.246,5.672l21.752,19.802
					C440.305,187.779,441.09,189.102,440.729,190.061z"/>
			</g>
			<g opacity="0.5029">
				<path fill="#030202" d="M441.438,190.766c-0.36,0.959-2.354,1.44-5.979,1.44H420.41l-6.705-14.404v14.404v126.022
					l-36.251-50.408l-36.25,50.408V188.604v-14.401c0-3.962,1.417-7.353,4.258-10.172c2.839-2.82,6.256-4.231,10.242-4.231l0,0h43.5
					c3.987,0,7.281,0.508,9.88,1.529c2.598,1.021,5.35,2.91,8.246,5.672l21.753,19.803
					C441.014,188.484,441.799,189.807,441.438,190.766z"/>
			</g>
			<g opacity="0.499">
				<path fill="#030202" d="M442.147,191.471c-0.362,0.959-2.355,1.439-5.981,1.439h-15.047l-6.704-14.404v14.404v126.022
					l-36.251-50.409l-36.25,50.409V189.309v-14.401c0-3.962,1.416-7.354,4.257-10.173c2.84-2.82,6.256-4.23,10.242-4.23l0,0h43.5
					c3.987,0,7.282,0.508,9.88,1.529c2.598,1.02,5.35,2.91,8.246,5.671l21.753,19.803
					C441.723,189.188,442.509,190.51,442.147,191.471z"/>
			</g>
			<g opacity="0.4952">
				<path fill="#030202" d="M442.857,192.175c-0.362,0.96-2.355,1.44-5.982,1.44h-15.046l-6.705-14.404v14.404v126.022
					l-36.251-50.409l-36.25,50.409V190.014v-14.402c0-3.962,1.417-7.354,4.258-10.173c2.84-2.82,6.256-4.23,10.242-4.23l0,0h43.5
					c3.987,0,7.281,0.508,9.88,1.529c2.597,1.021,5.349,2.91,8.246,5.672l21.753,19.803
					C442.433,189.895,443.219,191.215,442.857,192.175z"/>
			</g>
			<g opacity="0.4914">
				<path fill="#030202" d="M443.566,192.88c-0.361,0.959-2.355,1.44-5.981,1.44h-15.046l-6.705-14.404v14.404v126.021
					l-36.251-50.408l-36.25,50.408V190.718v-14.402c0-3.962,1.417-7.353,4.257-10.172c2.84-2.82,6.256-4.231,10.243-4.231l0,0
					h43.499c3.988,0,7.282,0.508,9.881,1.529c2.597,1.021,5.35,2.91,8.246,5.672l21.752,19.803
					C443.143,190.6,443.928,191.92,443.566,192.88z"/>
			</g>
			<g opacity="0.4876">
				<path fill="#030202" d="M444.276,193.584c-0.362,0.96-2.356,1.439-5.981,1.439h-15.047l-6.705-14.403v14.403v126.023
					l-36.25-50.408l-36.251,50.408V191.422v-14.401c0-3.962,1.417-7.353,4.257-10.173c2.84-2.82,6.256-4.23,10.243-4.23v0.001
					h43.499c3.988,0,7.282,0.508,9.881,1.529c2.598,1.02,5.351,2.911,8.246,5.671l21.752,19.803
					C443.852,191.303,444.638,192.625,444.276,193.584z"/>
			</g>
			<g opacity="0.4838">
				<path fill="#030202" d="M444.984,194.289c-0.361,0.959-2.354,1.439-5.98,1.439h-15.047l-6.705-14.403v14.403v126.022
					l-36.251-50.409l-36.25,50.409V192.127v-14.402c0-3.962,1.417-7.353,4.258-10.173c2.841-2.82,6.257-4.229,10.242-4.229v0.001
					h43.5c3.987,0,7.281,0.508,9.88,1.529c2.598,1.02,5.351,2.91,8.246,5.672l21.753,19.803
					C444.561,192.008,445.347,193.328,444.984,194.289z"/>
			</g>
			<g opacity="0.48">
				<path fill="#030202" d="M445.695,194.994c-0.362,0.959-2.355,1.439-5.982,1.439h-15.046l-6.705-14.404v14.404v126.022
					l-36.251-50.409l-36.25,50.409V192.832V178.43c0-3.962,1.417-7.353,4.257-10.173c2.841-2.819,6.257-4.23,10.243-4.23v0.001h43.5
					c3.987,0,7.281,0.508,9.88,1.529s5.35,2.911,8.246,5.672l21.753,19.802C445.271,192.713,446.057,194.033,445.695,194.994z"/>
			</g>
			<g opacity="0.4762">
				<path fill="#030202" d="M446.404,195.698c-0.361,0.959-2.355,1.44-5.981,1.44h-15.046l-6.705-14.404v14.404v126.022
					l-36.252-50.409l-36.249,50.409V193.536v-14.401c0-3.962,1.417-7.354,4.257-10.173c2.84-2.82,6.256-4.23,10.243-4.23v0.001
					h43.499c3.988,0,7.282,0.508,9.881,1.529c2.598,1.02,5.35,2.91,8.246,5.671l21.752,19.803
					C445.98,193.417,446.766,194.738,446.404,195.698z"/>
			</g>
			<g opacity="0.4724">
				<path fill="#030202" d="M447.113,196.402c-0.361,0.959-2.355,1.439-5.98,1.439h-15.047l-6.705-14.402v14.402v126.023
					l-36.251-50.409l-36.25,50.409V194.24v-14.401c0-3.962,1.417-7.354,4.259-10.173c2.838-2.819,6.254-4.23,10.241-4.23l0,0h43.499
					c3.988,0,7.282,0.508,9.881,1.529c2.598,1.021,5.35,2.91,8.246,5.672l21.752,19.802
					C446.689,194.121,447.475,195.443,447.113,196.402z"/>
			</g>
			<g opacity="0.4686">
				<path fill="#030202" d="M447.823,197.107c-0.362,0.959-2.356,1.439-5.981,1.439h-15.047l-6.705-14.404v14.404V324.57
					l-36.25-50.408l-36.251,50.408V194.945v-14.402c0-3.962,1.417-7.353,4.257-10.172c2.842-2.82,6.258-4.231,10.243-4.231v0.001
					h43.5c3.987,0,7.281,0.509,9.88,1.529c2.599,1.021,5.351,2.91,8.246,5.672l21.752,19.803
					C447.398,194.826,448.184,196.146,447.823,197.107z"/>
			</g>
			<g opacity="0.4648">
				<path fill="#030202" d="M448.533,197.813c-0.362,0.959-2.355,1.439-5.982,1.439h-15.046L420.8,184.85v14.402v126.023
					l-36.251-50.409l-36.25,50.409V195.65v-14.402c0-3.962,1.417-7.353,4.258-10.172c2.84-2.82,6.256-4.231,10.242-4.231v0.001
					h43.499c3.988,0,7.282,0.508,9.881,1.529c2.598,1.021,5.35,2.91,8.246,5.671l21.753,19.804
					C448.108,195.531,448.895,196.852,448.533,197.813z"/>
			</g>
			<g opacity="0.461">
				<path fill="#030202" d="M449.242,198.518c-0.361,0.959-2.355,1.439-5.981,1.439h-15.046l-6.705-14.402v14.402V325.98
					l-36.251-50.408l-36.251,50.408V196.355v-14.402c0-3.962,1.418-7.353,4.258-10.172c2.84-2.82,6.256-4.231,10.243-4.231v0.001
					h43.499c3.988,0,7.281,0.508,9.881,1.529c2.598,1.02,5.35,2.91,8.246,5.671l21.752,19.804
					C448.818,196.236,449.604,197.559,449.242,198.518z"/>
			</g>
			<g opacity="0.4571">
				<path fill="#030202" d="M449.951,199.223c-0.361,0.959-2.355,1.439-5.98,1.439h-15.047l-6.705-14.404v14.404v126.022
					l-36.251-50.409l-36.251,50.409V197.061v-14.402c0-3.961,1.418-7.353,4.258-10.172c2.84-2.82,6.256-4.231,10.243-4.231l0,0
					h43.499c3.988,0,7.282,0.509,9.881,1.529c2.599,1.021,5.35,2.91,8.246,5.672l21.752,19.803
					C449.527,196.939,450.313,198.262,449.951,199.223z"/>
			</g>
			<g opacity="0.4533">
				<path fill="#030202" d="M450.661,199.926c-0.362,0.96-2.355,1.44-5.981,1.44h-15.047l-6.705-14.404v14.404V327.39l-36.25-50.409
					l-36.25,50.409V197.764v-14.4c0-3.962,1.416-7.354,4.258-10.172c2.84-2.82,6.254-4.231,10.242-4.231v0.001h43.499
					c3.987,0,7.281,0.508,9.88,1.529c2.599,1.02,5.351,2.91,8.246,5.671l21.753,19.803
					C450.236,197.645,451.022,198.966,450.661,199.926z"/>
			</g>
			<g opacity="0.4495">
				<path fill="#030202" d="M451.37,200.631c-0.361,0.959-2.354,1.439-5.981,1.439h-15.046l-6.705-14.402v14.402v126.023
					l-36.251-50.408l-36.25,50.408V198.469v-14.402c0-3.96,1.418-7.353,4.258-10.171c2.84-2.82,6.256-4.23,10.242-4.23l0,0h43.499
					c3.988,0,7.282,0.508,9.881,1.529c2.598,1.021,5.35,2.91,8.246,5.672l21.753,19.803
					C450.945,198.35,451.731,199.671,451.37,200.631z"/>
			</g>
			<g opacity="0.4457">
				<path fill="#030202" d="M452.08,201.336c-0.362,0.959-2.355,1.439-5.981,1.439h-15.046l-6.705-14.403v14.403v126.022
					l-36.25-50.407l-36.252,50.407V199.174v-14.4c0-3.963,1.418-7.354,4.258-10.173c2.84-2.82,6.256-4.231,10.242-4.231v0.001h43.5
					c3.988,0,7.281,0.508,9.881,1.529c2.598,1.021,5.35,2.91,8.245,5.672l21.753,19.803
					C451.656,199.055,452.441,200.376,452.08,201.336z"/>
			</g>
			<g opacity="0.4419">
				<path fill="#030202" d="M452.789,202.04c-0.361,0.96-2.355,1.44-5.98,1.44h-15.047l-6.705-14.404v14.404v126.022l-36.25-50.409
					l-36.25,50.409V199.878v-14.401c0-3.961,1.416-7.353,4.256-10.171c2.84-2.821,6.256-4.231,10.244-4.231v0.001h43.498
					c3.988,0,7.282,0.507,9.881,1.529c2.598,1.02,5.35,2.91,8.246,5.671l21.752,19.803
					C452.365,199.759,453.15,201.08,452.789,202.04z"/>
			</g>
			<g opacity="0.4381">
				<path fill="#030202" d="M453.498,202.745c-0.361,0.959-2.355,1.44-5.98,1.44h-15.047l-6.705-14.404v14.404v126.021
					l-36.25-50.409l-36.25,50.409V200.582v-14.4c0-3.963,1.416-7.354,4.258-10.173c2.84-2.82,6.256-4.231,10.242-4.231v0.001h43.498
					c3.988,0,7.282,0.508,9.881,1.529c2.599,1.02,5.35,2.909,8.246,5.671l21.752,19.803
					C453.074,200.464,453.859,201.785,453.498,202.745z"/>
			</g>
			<g opacity="0.4343">
				<path fill="#030202" d="M454.208,203.449c-0.361,0.96-2.355,1.439-5.981,1.439h-15.046l-6.705-14.402v14.402v126.023
					l-36.251-50.409l-36.25,50.409V201.287v-14.401c0-3.962,1.418-7.353,4.258-10.172c2.84-2.819,6.256-4.231,10.242-4.231v0.001
					h43.5c3.987,0,7.281,0.508,9.881,1.529c2.597,1.02,5.349,2.91,8.245,5.672l21.753,19.801
					C453.784,201.169,454.57,202.49,454.208,203.449z"/>
			</g>
			<g opacity="0.4305">
				<path fill="#030202" d="M454.918,204.154c-0.362,0.959-2.355,1.439-5.98,1.439h-15.047l-6.705-14.404v14.404v126.023
					l-36.252-50.409l-36.25,50.409V201.992V187.59c0-3.961,1.418-7.352,4.258-10.171c2.841-2.82,6.257-4.231,10.242-4.231v0.001
					h43.5c3.987,0,7.281,0.508,9.882,1.528c2.597,1.021,5.349,2.911,8.244,5.672l21.754,19.802
					C454.493,201.873,455.279,203.193,454.918,204.154z"/>
			</g>
			<g opacity="0.4267">
				<path fill="#030202" d="M455.627,204.859c-0.361,0.959-2.354,1.438-5.98,1.438H434.6l-6.705-14.403v14.403v126.023
					l-36.25-50.408l-36.25,50.408V202.697v-14.402c0-3.962,1.416-7.354,4.256-10.172c2.841-2.819,6.257-4.23,10.244-4.23l0,0h43.498
					c3.988,0,7.282,0.508,9.882,1.529c2.598,1.02,5.349,2.91,8.245,5.672l21.753,19.803
					C455.203,202.578,455.988,203.898,455.627,204.859z"/>
			</g>
			<g opacity="0.4229">
				<path fill="#030202" d="M456.336,205.563c-0.361,0.959-2.354,1.44-5.979,1.44h-15.048l-6.705-14.403v14.403v126.022
					l-36.25-50.409l-36.25,50.409V203.4v-14.401c0-3.962,1.416-7.353,4.256-10.172c2.841-2.82,6.257-4.23,10.244-4.23v0.001h43.498
					c3.988,0,7.282,0.507,9.882,1.528c2.597,1.021,5.349,2.91,8.245,5.672l21.753,19.804
					C455.912,203.282,456.697,204.604,456.336,205.563z"/>
			</g>
			<g opacity="0.419">
				<path fill="#030202" d="M457.046,206.27c-0.361,0.959-2.354,1.439-5.98,1.439h-15.047l-6.704-14.404v14.404v126.022
					l-36.252-50.409l-36.25,50.409V204.105v-14.4c0-3.963,1.416-7.354,4.258-10.173c2.84-2.82,6.256-4.231,10.242-4.231v0.001h43.5
					c3.986,0,7.281,0.508,9.881,1.529c2.597,1.02,5.349,2.91,8.246,5.672l21.753,19.804
					C456.622,203.986,457.407,205.309,457.046,206.27z"/>
			</g>
			<g opacity="0.4152">
				<path fill="#030202" d="M457.756,206.975c-0.361,0.959-2.354,1.438-5.98,1.438h-15.046l-6.705-14.403v14.403v126.022
					l-36.253-50.408l-36.25,50.408V204.811v-14.4c0-3.962,1.418-7.354,4.259-10.172c2.84-2.82,6.256-4.231,10.241-4.231v0.001
					h43.501c3.987,0,7.28,0.508,9.881,1.529c2.597,1.02,5.349,2.91,8.245,5.671l21.753,19.804
					C457.331,204.691,458.117,206.014,457.756,206.975z"/>
			</g>
			<g opacity="0.4114">
				<path fill="#030202" d="M458.465,207.678c-0.361,0.959-2.354,1.44-5.979,1.44h-15.048l-6.704-14.404v14.404V335.14
					l-36.253-50.407l-36.25,50.407V205.516v-14.4c0-3.963,1.418-7.354,4.259-10.174c2.84-2.819,6.256-4.23,10.243-4.23l0,0h43.499
					c3.986,0,7.281,0.508,9.881,1.529c2.597,1.02,5.349,2.91,8.246,5.672l21.752,19.803
					C458.041,205.396,458.826,206.718,458.465,207.678z"/>
			</g>
			<g opacity="0.4076">
				<path fill="#030202" d="M459.174,208.382c-0.36,0.96-2.354,1.44-5.979,1.44h-15.047l-6.705-14.404v14.404v126.022
					l-36.251-50.409l-36.25,50.409V206.221v-14.402c0-3.961,1.416-7.354,4.257-10.172c2.84-2.82,6.256-4.23,10.243-4.23v0.001
					h43.499c3.987,0,7.28,0.508,9.881,1.528c2.598,1.021,5.349,2.911,8.246,5.673l21.752,19.802
					C458.75,206.102,459.535,207.422,459.174,208.382z"/>
			</g>
			<g opacity="0.4038">
				<path fill="#030202" d="M459.884,209.087c-0.361,0.96-2.354,1.44-5.98,1.44h-15.047l-6.705-14.404v14.404V336.55L395.9,286.141
					l-36.25,50.409V206.925v-14.401c0-3.963,1.416-7.354,4.258-10.172c2.84-2.82,6.256-4.23,10.242-4.23v0.001h43.5
					c3.986,0,7.281,0.508,9.88,1.528c2.598,1.02,5.35,2.911,8.246,5.672l21.753,19.804
					C459.459,206.807,460.246,208.127,459.884,209.087z"/>
			</g>
			<g opacity="0.4">
				<path fill="#030202" d="M460.594,209.792c-0.36,0.959-2.354,1.44-5.98,1.44h-15.047l-6.705-14.404v14.404v126.022
					l-36.251-50.409l-36.251,50.409V207.63v-14.401c0-3.963,1.418-7.354,4.259-10.172c2.84-2.821,6.256-4.231,10.241-4.231v0.001
					h43.501c3.986,0,7.28,0.508,9.88,1.529c2.597,1.021,5.349,2.911,8.246,5.672l21.753,19.803
					C460.17,207.511,460.955,208.832,460.594,209.792z"/>
			</g>
			<g opacity="0.3962">
				<path fill="#030202" d="M461.303,210.496c-0.36,0.96-2.354,1.439-5.98,1.439h-15.046l-6.706-14.403v14.403v126.022
					l-36.251-50.408l-36.251,50.408V208.334v-14.4c0-3.963,1.418-7.354,4.259-10.174c2.84-2.82,6.256-4.23,10.241-4.23v0.001h43.501
					c3.987,0,7.28,0.508,9.88,1.527c2.598,1.021,5.35,2.91,8.247,5.672l21.752,19.804
					C460.879,208.215,461.664,209.536,461.303,210.496z"/>
			</g>
			<g opacity="0.3924">
				<path fill="#030202" d="M462.012,211.201c-0.36,0.959-2.354,1.439-5.98,1.439h-15.046l-6.705-14.404v14.404v126.022
					l-36.251-50.408l-36.25,50.408V209.039v-14.402c0-3.961,1.416-7.352,4.258-10.172c2.839-2.82,6.256-4.231,10.242-4.231v0.001
					h43.5c3.986,0,7.28,0.507,9.88,1.529c2.598,1.021,5.35,2.91,8.246,5.672l21.752,19.804
					C461.588,208.92,462.373,210.241,462.012,211.201z"/>
			</g>
			<g opacity="0.3886">
				<path fill="#030202" d="M462.722,211.906c-0.361,0.959-2.354,1.439-5.98,1.439h-15.047l-6.705-14.404v14.404v126.022
					l-36.25-50.409l-36.251,50.409V209.744v-14.402c0-3.962,1.416-7.353,4.258-10.172c2.84-2.82,6.256-4.23,10.243-4.23l0,0h43.499
					c3.987,0,7.281,0.509,9.88,1.528c2.598,1.021,5.35,2.91,8.246,5.673l21.753,19.803
					C462.297,209.624,463.083,210.945,462.722,211.906z"/>
			</g>
			<g opacity="0.3848">
				<path fill="#030202" d="M463.432,212.609c-0.361,0.961-2.354,1.44-5.981,1.44h-15.046l-6.705-14.403v14.403v126.023
					l-36.251-50.409l-36.25,50.409V210.448v-14.401c0-3.962,1.417-7.354,4.257-10.173c2.841-2.819,6.256-4.229,10.243-4.229l0,0
					h43.499c3.987,0,7.282,0.508,9.881,1.528c2.597,1.021,5.349,2.91,8.246,5.673l21.753,19.803
					C463.007,210.329,463.793,211.65,463.432,212.609z"/>
			</g>
			<g opacity="0.381">
				<path fill="#030202" d="M464.141,213.314c-0.361,0.959-2.354,1.439-5.98,1.439h-15.046l-6.705-14.402v14.402v126.023
					l-36.252-50.408l-36.25,50.408V211.152v-14.401c0-3.962,1.417-7.353,4.258-10.172c2.84-2.82,6.256-4.231,10.242-4.231v0.002
					h43.5c3.987,0,7.281,0.508,9.881,1.527c2.597,1.021,5.349,2.91,8.246,5.673l21.752,19.802
					C463.716,211.033,464.502,212.355,464.141,213.314z"/>
			</g>
			<g opacity="0.3771">
				<path fill="#030202" d="M464.85,214.02c-0.36,0.959-2.354,1.44-5.98,1.44h-15.046l-6.705-14.403v14.403v126.023l-36.251-50.409
					l-36.25,50.409V211.857v-14.401c0-3.962,1.417-7.353,4.257-10.173s6.256-4.23,10.243-4.23v0.002h43.499
					c3.988,0,7.282,0.508,9.881,1.527c2.597,1.021,5.349,2.91,8.246,5.672l21.753,19.803
					C464.426,211.738,465.211,213.061,464.85,214.02z"/>
			</g>
			<g opacity="0.3733">
				<path fill="#030202" d="M465.56,214.725c-0.361,0.959-2.354,1.439-5.98,1.439h-15.047l-6.705-14.403v14.403v126.023
					l-36.251-50.408l-36.249,50.408V212.563V198.16c0-3.961,1.416-7.352,4.257-10.172c2.84-2.82,6.256-4.231,10.242-4.231v0.001
					h43.5c3.987,0,7.282,0.508,9.88,1.529c2.598,1.02,5.35,2.91,8.246,5.672l21.753,19.803
					C465.135,212.443,465.921,213.766,465.56,214.725z"/>
			</g>
			<g opacity="0.3695">
				<path fill="#030202" d="M466.27,215.43c-0.361,0.959-2.355,1.439-5.981,1.439h-15.046l-6.705-14.404v14.404v126.022
					l-36.251-50.407l-36.25,50.407V213.268v-14.401c0-3.962,1.417-7.353,4.258-10.173c2.839-2.819,6.256-4.23,10.242-4.23v0.001
					h43.499c3.988,0,7.282,0.509,9.881,1.528c2.597,1.021,5.349,2.91,8.246,5.672l21.752,19.803
					C465.845,213.146,466.63,214.471,466.27,215.43z"/>
			</g>
			<g opacity="0.3657">
				<path fill="#030202" d="M466.979,216.134c-0.36,0.96-2.354,1.44-5.98,1.44h-15.046l-6.706-14.404v14.404v126.021l-36.251-50.408
					l-36.25,50.408V213.973V199.57c0-3.963,1.418-7.354,4.258-10.174s6.256-4.229,10.242-4.229v0.001h43.5
					c3.988,0,7.281,0.507,9.881,1.527c2.597,1.021,5.349,2.91,8.245,5.673l21.753,19.803
					C466.554,213.854,467.34,215.174,466.979,216.134z"/>
			</g>
			<g opacity="0.3619">
				<path fill="#030202" d="M467.688,216.839c-0.36,0.959-2.354,1.438-5.98,1.438H446.66l-6.705-14.402v14.402v126.023
					l-36.251-50.408l-36.25,50.408V214.677v-14.401c0-3.963,1.417-7.354,4.257-10.172c2.84-2.82,6.256-4.231,10.243-4.231v0.001
					h43.499c3.988,0,7.282,0.508,9.881,1.527c2.598,1.021,5.349,2.91,8.246,5.673l21.752,19.804
					C467.264,214.559,468.049,215.879,467.688,216.839z"/>
			</g>
			<g opacity="0.3581">
				<path fill="#030202" d="M468.397,217.543c-0.362,0.959-2.355,1.439-5.981,1.439h-15.047l-6.705-14.403v14.403v126.022
					l-36.251-50.407l-36.249,50.407V215.381v-14.402c0-3.961,1.416-7.352,4.256-10.172c2.842-2.82,6.258-4.229,10.243-4.229v0.001
					h43.499c3.988,0,7.283,0.508,9.881,1.527c2.598,1.021,5.35,2.91,8.246,5.672l21.753,19.804
					C467.973,215.262,468.759,216.583,468.397,217.543z"/>
			</g>
			<g opacity="0.3543">
				<path fill="#030202" d="M469.106,218.248c-0.361,0.959-2.354,1.439-5.981,1.439h-15.046l-6.705-14.404v14.404V345.71
					l-36.251-50.408l-36.25,50.408V216.086v-14.402c0-3.961,1.416-7.353,4.258-10.172c2.84-2.82,6.256-4.229,10.242-4.229l0,0
					h43.499c3.988,0,7.282,0.508,9.881,1.528c2.597,1.021,5.349,2.91,8.246,5.672l21.753,19.804
					C468.683,215.967,469.469,217.288,469.106,218.248z"/>
			</g>
			<g opacity="0.3505">
				<path fill="#030202" d="M469.816,218.953c-0.361,0.959-2.355,1.439-5.981,1.439h-15.046l-6.705-14.404v14.404v126.022
					l-36.252-50.409l-36.25,50.409V216.791v-14.402c0-3.962,1.417-7.353,4.258-10.173c2.84-2.819,6.256-4.229,10.242-4.229l0,0h43.5
					c3.988,0,7.281,0.509,9.88,1.529c2.598,1.021,5.351,2.909,8.246,5.672l21.753,19.803
					C469.393,216.672,470.178,217.992,469.816,218.953z"/>
			</g>
			<g opacity="0.3467">
				<path fill="#030202" d="M470.525,219.657c-0.361,0.959-2.355,1.44-5.981,1.44h-15.046l-6.705-14.404v14.404V347.12
					l-36.252-50.408l-36.249,50.408V217.495v-14.401c0-3.962,1.417-7.354,4.257-10.173s6.256-4.231,10.243-4.231v0.002h43.499
					c3.988,0,7.282,0.509,9.881,1.528c2.597,1.021,5.35,2.909,8.246,5.673l21.752,19.803
					C470.102,217.376,470.887,218.697,470.525,219.657z"/>
			</g>
			<g opacity="0.3429">
				<path fill="#030202" d="M471.235,220.361c-0.362,0.959-2.355,1.439-5.981,1.439h-15.047l-6.705-14.402v14.402v126.022
					l-36.25-50.408l-36.251,50.408V218.2v-14.402c0-3.962,1.417-7.353,4.258-10.173c2.841-2.818,6.257-4.23,10.242-4.23v0.002h43.5
					c3.987,0,7.281,0.508,9.88,1.527c2.598,1.021,5.351,2.91,8.246,5.674L468.88,216.4
					C470.811,218.081,471.597,219.402,471.235,220.361z"/>
			</g>
			<g opacity="0.339">
				<path fill="#030202" d="M471.945,221.066c-0.362,0.959-2.356,1.438-5.982,1.438h-15.046l-6.706-14.403v14.403v126.023
					l-36.25-50.408l-36.25,50.408V218.904v-14.401c0-3.962,1.417-7.353,4.257-10.173c2.841-2.82,6.257-4.23,10.243-4.23v0.002h43.5
					c3.987,0,7.281,0.508,9.88,1.527c2.598,1.021,5.35,2.91,8.246,5.672l21.752,19.803
					C471.52,218.785,472.306,220.105,471.945,221.066z"/>
			</g>
			<g opacity="0.3352">
				<path fill="#030202" d="M472.654,221.771c-0.362,0.959-2.355,1.438-5.982,1.438h-15.046l-6.705-14.403v14.403v126.023
					l-36.251-50.408l-36.25,50.408V219.609v-14.402c0-3.961,1.417-7.354,4.258-10.172c2.84-2.82,6.256-4.23,10.242-4.23l0,0h43.5
					c3.987,0,7.281,0.508,9.88,1.528s5.351,2.911,8.246,5.673l21.753,19.803C472.23,219.49,473.016,220.813,472.654,221.771z"/>
			</g>
			<g opacity="0.3314">
				<path fill="#030202" d="M473.363,222.477c-0.361,0.959-2.355,1.439-5.981,1.439h-15.046l-6.705-14.404v14.404v126.021
					l-36.251-50.408l-36.251,50.408V220.314v-14.402c0-3.962,1.418-7.354,4.258-10.172c2.84-2.82,6.256-4.231,10.243-4.231v0.001
					h43.499c3.988,0,7.282,0.508,9.881,1.528c2.598,1.021,5.35,2.91,8.246,5.672l21.752,19.804
					C472.939,220.195,473.725,221.518,473.363,222.477z"/>
			</g>
			<g opacity="0.3276">
				<path fill="#030202" d="M474.072,223.182c-0.361,0.959-2.354,1.439-5.98,1.439h-15.047l-6.705-14.404v14.404v126.021
					l-36.251-50.408l-36.25,50.408V221.02v-14.401c0-3.964,1.417-7.354,4.259-10.173c2.838-2.82,6.254-4.231,10.241-4.231v0.002
					h43.5c3.987,0,7.281,0.509,9.88,1.528c2.599,1.021,5.351,2.908,8.246,5.672l21.753,19.803
					C473.648,220.898,474.434,222.221,474.072,223.182z"/>
			</g>
			<g opacity="0.3238">
				<path fill="#030202" d="M474.782,223.886c-0.362,0.96-2.355,1.439-5.981,1.439h-15.046l-6.705-14.403v14.403v126.021
					l-36.251-50.407l-36.25,50.407V221.725v-14.402c0-3.963,1.416-7.354,4.258-10.172c2.84-2.82,6.256-4.231,10.242-4.231v0.001
					h43.499c3.988,0,7.282,0.508,9.881,1.528c2.598,1.021,5.35,2.909,8.246,5.672l21.752,19.804
					C474.358,221.604,475.144,222.926,474.782,223.886z"/>
			</g>
			<g opacity="0.32">
				<path fill="#030202" d="M475.492,224.59c-0.362,0.959-2.355,1.439-5.982,1.439h-15.046l-6.705-14.403v14.403v126.022
					l-36.251-50.407l-36.25,50.407V222.428v-14.4c0-3.963,1.417-7.354,4.258-10.174c2.84-2.819,6.256-4.229,10.242-4.229v0.001h43.5
					c3.988,0,7.281,0.507,9.88,1.527c2.598,1.021,5.351,2.91,8.246,5.673l21.753,19.803
					C475.067,222.309,475.854,223.63,475.492,224.59z"/>
			</g>
			<g opacity="0.3162">
				<path fill="#030202" d="M476.201,225.295c-0.361,0.959-2.355,1.439-5.981,1.439h-15.046l-6.706-14.403v14.403v126.022
					l-36.251-50.407l-36.249,50.407V223.133V208.73c0-3.963,1.416-7.354,4.257-10.172c2.84-2.82,6.256-4.231,10.243-4.231v0.002
					h43.499c3.988,0,7.282,0.507,9.881,1.526c2.598,1.021,5.35,2.91,8.246,5.674l21.752,19.803
					C475.777,223.014,476.563,224.335,476.201,225.295z"/>
			</g>
			<g opacity="0.3124">
				<path fill="#030202" d="M476.911,225.999c-0.362,0.96-2.356,1.44-5.981,1.44h-15.047l-6.705-14.404v14.404v126.021
					l-36.251-50.408l-36.249,50.408V223.837v-14.401c0-3.961,1.416-7.353,4.256-10.172c2.84-2.82,6.256-4.23,10.244-4.23v0.001
					h43.499c3.987,0,7.281,0.508,9.88,1.528s5.351,2.91,8.246,5.672l21.752,19.804C476.486,223.719,477.272,225.039,476.911,225.999
					z"/>
			</g>
			<g opacity="0.3086">
				<path fill="#030202" d="M477.62,226.704c-0.361,0.959-2.355,1.44-5.981,1.44h-15.046l-6.706-14.404v14.404v126.021
					l-36.251-50.409l-36.249,50.409V224.542v-14.401c0-3.961,1.416-7.354,4.258-10.173c2.84-2.819,6.256-4.231,10.242-4.231v0.003
					h43.499c3.988,0,7.282,0.508,9.881,1.528c2.598,1.021,5.35,2.908,8.246,5.672l21.752,19.803
					C477.196,224.423,477.981,225.744,477.62,226.704z"/>
			</g>
			<g opacity="0.3048">
				<path fill="#030202" d="M478.329,227.409c-0.361,0.959-2.354,1.438-5.981,1.438h-15.046l-6.705-14.404v14.404v126.023
					l-36.251-50.409l-36.25,50.409V225.247v-14.401c0-3.963,1.418-7.354,4.258-10.174c2.84-2.818,6.256-4.23,10.242-4.23v0.002
					h43.499c3.988,0,7.282,0.508,9.881,1.527c2.599,1.021,5.35,2.91,8.246,5.674l21.753,19.803
					C477.905,225.128,478.691,226.449,478.329,227.409z"/>
			</g>
			<g opacity="0.301">
				<path fill="#030202" d="M479.039,228.113c-0.361,0.959-2.355,1.438-5.981,1.438h-15.046l-6.705-14.403v14.403v126.023
					l-36.252-50.408l-36.248,50.408V225.951v-14.402c0-3.961,1.416-7.352,4.256-10.172s6.256-4.23,10.242-4.23v0.002h43.5
					c3.988,0,7.281,0.507,9.882,1.527c2.597,1.021,5.349,2.91,8.245,5.672l21.752,19.803
					C478.615,225.832,479.4,227.152,479.039,228.113z"/>
			</g>
			<g opacity="0.2971">
				<path fill="#030202" d="M479.748,228.818c-0.361,0.959-2.355,1.438-5.98,1.438h-15.047l-6.705-14.403v14.403V356.28
					l-36.251-50.408l-36.249,50.408V226.656v-14.402c0-3.961,1.416-7.354,4.258-10.172c2.838-2.82,6.256-4.23,10.242-4.23l0,0
					h43.498c3.988,0,7.282,0.508,9.881,1.528s5.35,2.91,8.246,5.673l21.752,19.803C479.324,226.537,480.109,227.857,479.748,228.818
					z"/>
			</g>
			<g opacity="0.2933">
				<path fill="#030202" d="M480.458,229.523c-0.361,0.959-2.355,1.438-5.981,1.438h-15.046l-6.706-14.403v14.403v126.023
					l-36.25-50.409l-36.25,50.409V227.359v-14.4c0-3.962,1.416-7.354,4.258-10.173c2.84-2.819,6.256-4.229,10.242-4.229l0,0h43.499
					c3.988,0,7.282,0.508,9.882,1.528c2.597,1.021,5.349,2.91,8.245,5.672l21.753,19.804
					C480.034,227.242,480.819,228.563,480.458,229.523z"/>
			</g>
			<g opacity="0.2895">
				<path fill="#030202" d="M481.168,230.229c-0.362,0.959-2.355,1.438-5.982,1.438H460.14l-6.705-14.403v14.403V357.69
					l-36.251-50.408l-36.25,50.408V228.064v-14.401c0-3.962,1.418-7.353,4.258-10.172c2.84-2.82,6.256-4.231,10.242-4.231v0.002
					h43.499c3.988,0,7.282,0.508,9.882,1.527c2.597,1.021,5.349,2.91,8.245,5.673l21.754,19.804
					C480.743,227.945,481.529,229.268,481.168,230.229z"/>
			</g>
			<g opacity="0.2857">
				<path fill="#030202" d="M481.877,230.932c-0.361,0.961-2.354,1.44-5.98,1.44H460.85l-6.706-14.404v14.404v126.021
					l-36.251-50.407l-36.25,50.407V228.771v-14.402c0-3.962,1.418-7.354,4.258-10.174c2.841-2.819,6.257-4.229,10.242-4.229v0.001
					h43.5c3.987,0,7.281,0.508,9.881,1.528c2.598,1.021,5.35,2.909,8.246,5.672l21.753,19.804
					C481.453,228.65,482.238,229.973,481.877,230.932z"/>
			</g>
			<g opacity="0.2819">
				<path fill="#030202" d="M482.586,231.637c-0.361,0.959-2.354,1.44-5.979,1.44h-15.048l-6.705-14.404v14.404V359.1
					l-36.251-50.407L382.354,359.1V229.475v-14.401c0-3.962,1.416-7.353,4.256-10.173c2.841-2.819,6.257-4.23,10.243-4.23v0.002
					h43.499c3.988,0,7.282,0.508,9.882,1.528c2.597,1.021,5.349,2.909,8.245,5.672l21.753,19.803
					C482.162,229.355,482.948,230.677,482.586,231.637z"/>
			</g>
			<g opacity="0.2781">
				<path fill="#030202" d="M483.296,232.342c-0.362,0.959-2.354,1.439-5.98,1.439h-15.047l-6.705-14.404v14.404v126.022
					l-36.251-50.407l-36.25,50.407V230.18v-14.402c0-3.961,1.416-7.353,4.258-10.172c2.84-2.819,6.256-4.23,10.243-4.23v0.001
					h43.499c3.986,0,7.281,0.508,9.88,1.528c2.598,1.02,5.35,2.91,8.246,5.673l21.753,19.803
					C482.871,230.061,483.657,231.382,483.296,232.342z"/>
			</g>
			<g opacity="0.2743">
				<path fill="#030202" d="M484.006,233.046c-0.362,0.96-2.354,1.44-5.981,1.44h-15.046l-6.705-14.404v14.404v126.021
					L420.022,310.1l-36.251,50.408V230.884v-14.401c0-3.961,1.418-7.353,4.258-10.172c2.84-2.82,6.257-4.23,10.243-4.23v0.001h43.5
					c3.986,0,7.28,0.508,9.88,1.528c2.598,1.021,5.349,2.908,8.246,5.673l21.753,19.803
					C483.581,230.766,484.366,232.086,484.006,233.046z"/>
			</g>
			<g opacity="0.2705">
				<path fill="#030202" d="M484.715,233.751c-0.362,0.959-2.354,1.44-5.98,1.44h-15.046l-6.705-14.405v14.405v126.021
					l-36.252-50.408l-36.251,50.408V231.589v-14.401c0-3.961,1.418-7.354,4.259-10.172c2.84-2.82,6.256-4.231,10.242-4.231v0.002
					h43.5c3.987,0,7.28,0.507,9.881,1.526c2.597,1.021,5.349,2.91,8.246,5.674l21.752,19.803
					C484.291,231.471,485.076,232.791,484.715,233.751z"/>
			</g>
			<g opacity="0.2667">
				<path fill="#030202" d="M485.424,234.456c-0.36,0.959-2.354,1.438-5.98,1.438h-15.046l-6.705-14.403v14.403v126.022
					L421.44,311.51l-36.251,50.408V232.294v-14.401c0-3.963,1.418-7.354,4.258-10.172c2.84-2.822,6.256-4.231,10.243-4.231v0.001
					h43.499c3.987,0,7.281,0.508,9.881,1.527c2.598,1.021,5.349,2.91,8.246,5.674l21.752,19.802
					C485,232.174,485.785,233.496,485.424,234.456z"/>
			</g>
			<g opacity="0.2629">
				<path fill="#030202" d="M486.134,235.16c-0.361,0.959-2.354,1.439-5.98,1.439h-15.046l-6.706-14.404V236.6v126.023
					l-36.251-50.408l-36.25,50.408V232.998v-14.402c0-3.961,1.416-7.352,4.257-10.172c2.84-2.82,6.256-4.23,10.243-4.23v0.002
					h43.499c3.986,0,7.281,0.507,9.88,1.527c2.598,1.021,5.35,2.909,8.246,5.672l21.753,19.804
					C485.709,232.879,486.495,234.2,486.134,235.16z"/>
			</g>
			<g opacity="0.259">
				<path fill="#030202" d="M486.843,235.865c-0.36,0.959-2.354,1.439-5.98,1.439h-15.046L459.11,222.9v14.404v126.022
					l-36.25-50.408l-36.251,50.408V233.703v-14.402c0-3.961,1.418-7.353,4.259-10.172c2.839-2.82,6.255-4.23,10.242-4.23l0,0h43.5
					c3.986,0,7.28,0.509,9.88,1.528c2.597,1.021,5.349,2.91,8.246,5.673l21.752,19.803
					C486.419,233.584,487.205,234.904,486.843,235.865z"/>
			</g>
			<g opacity="0.2552">
				<path fill="#030202" d="M487.553,236.568c-0.36,0.961-2.354,1.44-5.98,1.44h-15.046l-6.706-14.403v14.403v126.022
					l-36.251-50.408l-36.251,50.408V234.407v-14.401c0-3.962,1.418-7.354,4.259-10.173c2.84-2.819,6.256-4.231,10.242-4.231v0.002
					h43.5c3.987,0,7.28,0.508,9.881,1.528c2.597,1.021,5.349,2.909,8.246,5.673l21.752,19.803
					C487.129,234.288,487.914,235.609,487.553,236.568z"/>
			</g>
			<g opacity="0.2514">
				<path fill="#030202" d="M488.262,237.273c-0.36,0.959-2.354,1.439-5.98,1.439h-15.046l-6.705-14.402v14.402v126.022
					l-36.252-50.407l-36.249,50.407V235.111v-14.4c0-3.963,1.416-7.354,4.257-10.173c2.84-2.82,6.256-4.231,10.243-4.231v0.002
					h43.499c3.987,0,7.281,0.508,9.881,1.527c2.597,1.021,5.349,2.91,8.246,5.673l21.752,19.804
					C487.838,234.993,488.623,236.314,488.262,237.273z"/>
			</g>
			<g opacity="0.2476">
				<path fill="#030202" d="M488.972,237.979c-0.361,0.961-2.355,1.439-5.98,1.439h-15.046l-6.706-14.402v14.402v126.023
					l-36.251-50.408l-36.249,50.408V235.816v-14.401c0-3.962,1.415-7.353,4.257-10.173c2.839-2.82,6.256-4.23,10.242-4.23v0.002
					h43.5c3.986,0,7.281,0.508,9.88,1.527c2.598,1.02,5.35,2.91,8.246,5.672l21.752,19.803
					C488.547,235.697,489.333,237.02,488.972,237.979z"/>
			</g>
			<g opacity="0.2438">
				<path fill="#030202" d="M489.682,238.684c-0.361,0.959-2.354,1.439-5.981,1.439h-15.046l-6.705-14.404v14.404v126.023
					l-36.251-50.408l-36.25,50.408V236.521v-14.402c0-3.961,1.416-7.352,4.257-10.172c2.84-2.82,6.256-4.23,10.243-4.23v0.001
					h43.499c3.987,0,7.282,0.507,9.881,1.527c2.597,1.021,5.349,2.909,8.246,5.673l21.753,19.803
					C489.257,236.402,490.042,237.725,489.682,238.684z"/>
			</g>
			<g opacity="0.24">
				<path fill="#030202" d="M490.391,239.389c-0.36,0.959-2.354,1.439-5.98,1.439h-15.047l-6.705-14.404v14.404V366.85
					l-36.251-50.406l-36.25,50.406V237.227v-14.401c0-3.962,1.417-7.353,4.258-10.173c2.84-2.819,6.256-4.23,10.242-4.23v0.001h43.5
					c3.986,0,7.281,0.509,9.881,1.528c2.597,1.021,5.349,2.91,8.246,5.673l21.752,19.804
					C489.966,237.107,490.752,238.428,490.391,239.389z"/>
			</g>
			<g opacity="0.2362">
				<path fill="#030202" d="M491.1,240.094c-0.36,0.959-2.354,1.439-5.98,1.439h-15.046l-6.705-14.404v14.404v126.021
					l-36.252-50.407l-36.249,50.407V237.932v-14.402c0-3.961,1.416-7.353,4.257-10.172c2.84-2.82,6.256-4.231,10.243-4.231v0.002
					h43.499c3.988,0,7.282,0.508,9.881,1.528c2.597,1.021,5.349,2.908,8.246,5.673l21.752,19.802
					C490.676,237.813,491.461,239.133,491.1,240.094z"/>
			</g>
			<g opacity="0.2324">
				<path fill="#030202" d="M491.809,240.798c-0.36,0.959-2.354,1.438-5.979,1.438h-15.047l-6.705-14.402v14.402V368.26
					l-36.251-50.408l-36.25,50.408V238.637v-14.402c0-3.963,1.417-7.353,4.258-10.172c2.839-2.82,6.255-4.231,10.242-4.231v0.001
					h43.5c3.986,0,7.281,0.508,9.88,1.527c2.598,1.021,5.35,2.91,8.246,5.674l21.753,19.803
					C491.385,238.518,492.171,239.838,491.809,240.798z"/>
			</g>
			<g opacity="0.2286">
				<path fill="#030202" d="M492.519,241.502c-0.36,0.959-2.354,1.439-5.98,1.439h-15.046l-6.706-14.403v14.403v126.022
					l-36.25-50.408l-36.25,50.408V239.34v-14.4c0-3.963,1.416-7.354,4.257-10.174c2.84-2.82,6.257-4.229,10.243-4.229v0.001h43.499
					c3.988,0,7.282,0.508,9.881,1.527c2.597,1.021,5.349,2.91,8.246,5.674l21.752,19.802
					C492.095,239.221,492.88,240.543,492.519,241.502z"/>
			</g>
			<g opacity="0.2248">
				<path fill="#030202" d="M493.229,242.207c-0.361,0.959-2.354,1.439-5.98,1.439H472.2l-6.705-14.404v14.404V369.67
					l-36.251-50.408l-36.25,50.408V240.045v-14.402c0-3.961,1.417-7.352,4.258-10.172c2.84-2.82,6.256-4.23,10.242-4.23v0.002h43.5
					c3.988,0,7.281,0.507,9.88,1.527c2.597,1.021,5.35,2.91,8.246,5.672l21.753,19.804
					C492.804,239.926,493.59,241.247,493.229,242.207z"/>
			</g>
			<g opacity="0.221">
				<path fill="#030202" d="M493.938,242.912c-0.36,0.959-2.354,1.439-5.98,1.439H472.91l-6.705-14.404v14.404v126.021
					l-36.252-50.408l-36.249,50.408V240.75v-14.402c0-3.961,1.417-7.352,4.257-10.172s6.256-4.23,10.243-4.23l0,0h43.499
					c3.988,0,7.282,0.509,9.881,1.529c2.597,1.021,5.349,2.909,8.246,5.672l21.752,19.804
					C493.514,240.631,494.299,241.952,493.938,242.912z"/>
			</g>
			<g opacity="0.2171">
				<path fill="#030202" d="M494.647,243.616c-0.362,0.96-2.356,1.44-5.981,1.44h-15.047l-6.705-14.404v14.404v126.021
					l-36.251-50.408l-36.25,50.408V241.454v-14.401c0-3.962,1.417-7.353,4.257-10.173c2.84-2.819,6.257-4.229,10.243-4.229l0,0
					h43.499c3.988,0,7.282,0.509,9.881,1.529c2.598,1.021,5.349,2.908,8.246,5.672l21.752,19.803
					C494.223,241.335,495.009,242.656,494.647,243.616z"/>
			</g>
			<g opacity="0.2133">
				<path fill="#030202" d="M495.356,244.32c-0.362,0.959-2.355,1.439-5.981,1.439h-15.046l-6.706-14.402v14.402v126.023
					l-36.251-50.408l-36.249,50.408V242.159v-14.402c0-3.962,1.416-7.353,4.257-10.172c2.84-2.819,6.256-4.231,10.243-4.231v0.002
					h43.499c3.988,0,7.282,0.508,9.881,1.527c2.597,1.021,5.349,2.91,8.246,5.674l21.752,19.803
					C494.933,242.04,495.718,243.361,495.356,244.32z"/>
			</g>
			<g opacity="0.2095">
				<path fill="#030202" d="M496.065,245.025c-0.361,0.959-2.354,1.438-5.98,1.438h-15.047l-6.705-14.403v14.403v126.023
					l-36.251-50.408l-36.25,50.408V242.863v-14.402c0-3.961,1.417-7.352,4.258-10.172c2.839-2.82,6.256-4.23,10.242-4.23v0.002h43.5
					c3.987,0,7.281,0.506,9.88,1.527c2.598,1.02,5.349,2.909,8.246,5.672l21.753,19.803
					C495.643,242.744,496.428,244.064,496.065,245.025z"/>
			</g>
			<g opacity="0.2057">
				<path fill="#030202" d="M496.775,245.73c-0.361,0.959-2.355,1.438-5.981,1.438h-15.046l-6.706-14.403v14.403v126.023
					l-36.251-50.408l-36.249,50.408V243.568v-14.402c0-3.961,1.416-7.352,4.257-10.172c2.84-2.82,6.256-4.23,10.243-4.23l0,0h43.499
					c3.988,0,7.282,0.508,9.881,1.529c2.597,1.02,5.35,2.909,8.246,5.672l21.752,19.803
					C496.352,243.449,497.137,244.771,496.775,245.73z"/>
			</g>
			<g opacity="0.2019">
				<path fill="#030202" d="M497.484,246.436c-0.361,0.959-2.354,1.439-5.98,1.439h-15.047l-6.705-14.404v14.404v126.023
					l-36.251-50.408l-36.249,50.408V244.273v-14.402c0-3.962,1.416-7.354,4.256-10.173c2.841-2.819,6.256-4.23,10.243-4.23v0.001
					h43.499c3.988,0,7.282,0.508,9.881,1.528s5.35,2.909,8.246,5.673l21.753,19.803
					C497.061,244.154,497.846,245.475,497.484,246.436z"/>
			</g>
			<g opacity="0.1981">
				<path fill="#030202" d="M498.194,247.141c-0.361,0.959-2.355,1.438-5.981,1.438h-15.046l-6.706-14.403v14.403v126.022
					l-36.25-50.407l-36.25,50.407V244.979v-14.401c0-3.962,1.416-7.353,4.257-10.173c2.84-2.82,6.256-4.231,10.243-4.231v0.002
					h43.499c3.988,0,7.282,0.509,9.881,1.527c2.598,1.021,5.35,2.909,8.246,5.673l21.752,19.803
					C497.77,244.857,498.556,246.18,498.194,247.141z"/>
			</g>
			<g opacity="0.1943">
				<path fill="#030202" d="M498.904,247.846c-0.362,0.959-2.356,1.438-5.981,1.438h-15.047l-6.705-14.404v14.404v126.021
					l-36.251-50.406l-36.25,50.406V245.684v-14.404c0-3.961,1.417-7.353,4.258-10.172c2.84-2.819,6.255-4.23,10.242-4.23v0.002h43.5
					c3.987,0,7.281,0.507,9.881,1.527c2.597,1.021,5.349,2.91,8.245,5.673l21.752,19.803
					C498.479,245.563,499.266,246.885,498.904,247.846z"/>
			</g>
			<g opacity="0.1905">
				<path fill="#030202" d="M499.613,248.549c-0.361,0.959-2.355,1.439-5.981,1.439h-15.046l-6.706-14.403v14.403v126.022
					l-36.251-50.408l-36.249,50.408V246.387v-14.4c0-3.963,1.416-7.354,4.257-10.174c2.84-2.819,6.256-4.23,10.243-4.23v0.002
					h43.499c3.988,0,7.281,0.507,9.881,1.527c2.598,1.021,5.35,2.91,8.246,5.673l21.752,19.803
					C499.189,246.268,499.975,247.589,499.613,248.549z"/>
			</g>
			<g opacity="0.1867">
				<path fill="#030202" d="M500.322,249.254c-0.361,0.959-2.355,1.439-5.98,1.439h-15.047l-6.705-14.403v14.403v126.022
					l-36.251-50.408l-36.25,50.408V247.092v-14.402c0-3.961,1.417-7.352,4.258-10.172c2.84-2.819,6.255-4.23,10.242-4.23v0.002
					h43.499c3.988,0,7.282,0.507,9.881,1.527c2.598,1.021,5.35,2.91,8.246,5.673l21.752,19.803
					C499.898,246.973,500.685,248.294,500.322,249.254z"/>
			</g>
			<g opacity="0.1829">
				<path fill="#030202" d="M501.032,249.958c-0.361,0.96-2.355,1.44-5.981,1.44h-15.046l-6.706-14.404v14.404V377.42
					l-36.251-50.407l-36.249,50.407V247.796v-14.401c0-3.961,1.416-7.353,4.257-10.172c2.841-2.82,6.257-4.23,10.243-4.23v0.001
					h43.499c3.987,0,7.282,0.508,9.881,1.528c2.598,1.021,5.35,2.908,8.246,5.672l21.752,19.803
					C500.608,247.677,501.394,248.999,501.032,249.958z"/>
			</g>
			<g opacity="0.179">
				<path fill="#030202" d="M501.741,250.663c-0.361,0.959-2.354,1.44-5.98,1.44h-15.047l-6.705-14.404v14.404v126.021
					l-36.251-50.408l-36.25,50.408V248.501V234.1c0-3.961,1.416-7.353,4.257-10.173c2.842-2.819,6.257-4.231,10.243-4.231v0.003
					h43.5c3.987,0,7.281,0.507,9.88,1.526c2.598,1.021,5.35,2.91,8.246,5.674l21.753,19.803
					C501.317,248.382,502.103,249.703,501.741,250.663z"/>
			</g>
			<g opacity="0.1752">
				<path fill="#030202" d="M502.451,251.368c-0.361,0.959-2.355,1.438-5.981,1.438h-15.046l-6.706-14.404v14.404V378.83
					l-36.251-50.408l-36.25,50.408V249.206v-14.401c0-3.962,1.417-7.354,4.258-10.173s6.257-4.231,10.242-4.231v0.002h43.5
					c3.988,0,7.281,0.508,9.88,1.527c2.599,1.021,5.351,2.909,8.247,5.672l21.752,19.805
					C502.027,249.087,502.813,250.408,502.451,251.368z"/>
			</g>
			<g opacity="0.1714">
				<path fill="#030202" d="M503.161,252.072c-0.362,0.959-2.356,1.439-5.981,1.439h-15.047l-6.705-14.404v14.404v126.022
					l-36.251-50.408l-36.25,50.408V249.91v-14.401c0-3.962,1.417-7.353,4.257-10.173c2.842-2.82,6.257-4.23,10.243-4.23v0.002h43.5
					c3.987,0,7.281,0.507,9.88,1.527c2.599,1.021,5.35,2.909,8.246,5.672l21.752,19.803
					C502.736,249.791,503.521,251.111,503.161,252.072z"/>
			</g>
			<g opacity="0.1676">
				<path fill="#030202" d="M503.87,252.777c-0.361,0.959-2.355,1.438-5.981,1.438h-15.046l-6.706-14.403v14.403V380.24
					l-36.251-50.408l-36.249,50.408V250.615v-14.402c0-3.961,1.416-7.352,4.257-10.172s6.257-4.23,10.243-4.23v0.002h43.499
					c3.988,0,7.282,0.506,9.881,1.526c2.598,1.021,5.35,2.909,8.246,5.673l21.752,19.803
					C503.446,250.496,504.231,251.816,503.87,252.777z"/>
			</g>
			<g opacity="0.1638">
				<path fill="#030202" d="M504.579,253.482c-0.361,0.959-2.355,1.438-5.981,1.438h-15.046l-6.706-14.403v14.403v126.022
					l-36.251-50.408l-36.249,50.408V251.318v-14.4c0-3.962,1.417-7.354,4.258-10.172c2.841-2.821,6.256-4.23,10.242-4.23l0,0h43.499
					c3.988,0,7.282,0.508,9.881,1.528c2.598,1.021,5.35,2.909,8.246,5.673l21.752,19.803
					C504.155,251.2,504.941,252.521,504.579,253.482z"/>
			</g>
			<g opacity="0.16">
				<path fill="#030202" d="M505.289,254.188c-0.361,0.959-2.355,1.438-5.981,1.438h-15.047l-6.705-14.403v14.403v126.022
					l-36.251-50.407l-36.25,50.407V252.023v-14.401c0-3.961,1.417-7.353,4.259-10.172c2.84-2.82,6.256-4.231,10.241-4.231v0.002
					h43.5c3.988,0,7.282,0.508,9.881,1.527c2.598,1.021,5.35,2.91,8.246,5.673l21.752,19.804
					C504.865,251.904,505.65,253.227,505.289,254.188z"/>
			</g>
			<g opacity="0.1562">
				<path fill="#030202" d="M505.998,254.893c-0.361,0.959-2.355,1.438-5.98,1.438h-15.047l-6.705-14.404v14.404v126.021
					l-36.252-50.406l-36.249,50.406V252.729v-14.401c0-3.962,1.417-7.353,4.257-10.173c2.841-2.82,6.257-4.23,10.243-4.23v0.002
					h43.499c3.988,0,7.282,0.508,9.881,1.527c2.598,1.021,5.35,2.908,8.246,5.673l21.752,19.804
					C505.574,252.609,506.359,253.932,505.998,254.893z"/>
			</g>
			<g opacity="0.1524">
				<path fill="#030202" d="M506.708,255.596c-0.362,0.959-2.355,1.439-5.981,1.439h-15.046l-6.706-14.403v14.403v126.022
					l-36.251-50.407l-36.249,50.407V253.434v-14.401c0-3.962,1.416-7.353,4.257-10.173c2.841-2.819,6.257-4.229,10.243-4.229v0.001
					h43.499c3.988,0,7.282,0.508,9.881,1.527c2.598,1.02,5.35,2.91,8.245,5.673l21.754,19.803
					C506.284,253.314,507.069,254.637,506.708,255.596z"/>
			</g>
			<g opacity="0.1486">
				<path fill="#030202" d="M507.418,256.301c-0.362,0.959-2.355,1.439-5.982,1.439H486.39l-6.706-14.404v14.404v126.021
					l-36.25-50.406l-36.25,50.406V254.139v-14.402c0-3.961,1.416-7.352,4.258-10.172c2.84-2.819,6.256-4.23,10.242-4.23v0.001
					h43.499c3.988,0,7.282,0.508,9.882,1.528c2.597,1.021,5.349,2.908,8.245,5.673l21.753,19.803
					C506.993,254.02,507.778,255.341,507.418,256.301z"/>
			</g>
			<g opacity="0.1448">
				<path fill="#030202" d="M508.127,257.006c-0.361,0.959-2.354,1.439-5.98,1.439h-15.048l-6.704-14.404v14.404v126.021
					l-36.252-50.408l-36.248,50.408V254.843v-14.401c0-3.961,1.415-7.353,4.257-10.172c2.84-2.82,6.256-4.231,10.241-4.231v0.002
					h43.5c3.988,0,7.282,0.508,9.882,1.528c2.597,1.021,5.349,2.908,8.246,5.672l21.752,19.804
					C507.703,254.725,508.488,256.046,508.127,257.006z"/>
			</g>
			<g opacity="0.141">
				<path fill="#030202" d="M508.836,257.71c-0.361,0.959-2.354,1.438-5.979,1.438h-15.048l-6.706-14.403v14.403v126.023
					l-36.251-50.408l-36.249,50.408V255.548v-14.401c0-3.961,1.416-7.353,4.258-10.172c2.84-2.82,6.256-4.231,10.242-4.231v0.002
					h43.499c3.988,0,7.282,0.507,9.882,1.526c2.597,1.021,5.349,2.91,8.245,5.674l21.753,19.803
					C508.412,255.43,509.197,256.75,508.836,257.71z"/>
			</g>
			<g opacity="0.1371">
				<path fill="#030202" d="M509.545,258.415c-0.361,0.959-2.354,1.438-5.979,1.438h-15.048l-6.704-14.403v14.403v126.022
					l-36.251-50.407l-36.25,50.407V256.253v-14.401c0-3.961,1.416-7.354,4.258-10.174c2.84-2.82,6.255-4.229,10.242-4.229v0.001
					h43.498c3.988,0,7.283,0.508,9.882,1.527c2.598,1.021,5.35,2.91,8.246,5.672l21.752,19.805
					C509.121,256.133,509.907,257.455,509.545,258.415z"/>
			</g>
			<g opacity="0.1333">
				<path fill="#030202" d="M510.255,259.119c-0.361,0.959-2.354,1.439-5.98,1.439h-15.046l-6.706-14.404v14.404v126.022
					l-36.251-50.408l-36.249,50.408V256.957v-14.402c0-3.961,1.416-7.352,4.257-10.172c2.84-2.82,6.256-4.23,10.243-4.23v0.002
					h43.499c3.987,0,7.281,0.508,9.881,1.527c2.597,1.021,5.349,2.909,8.246,5.672l21.752,19.804
					C509.831,256.838,510.616,258.159,510.255,259.119z"/>
			</g>
			<g opacity="0.1295">
				<path fill="#030202" d="M510.965,259.824c-0.361,0.959-2.354,1.439-5.981,1.439h-15.046l-6.705-14.404v14.404v126.021
					l-36.251-50.407l-36.249,50.407V257.662V243.26c0-3.961,1.416-7.352,4.257-10.172c2.84-2.82,6.256-4.23,10.242-4.23v0.002h43.5
					c3.987,0,7.281,0.507,9.881,1.526c2.597,1.021,5.348,2.91,8.246,5.673l21.752,19.803
					C510.541,257.543,511.326,258.864,510.965,259.824z"/>
			</g>
			<g opacity="0.1257">
				<path fill="#030202" d="M511.674,260.527c-0.36,0.961-2.354,1.44-5.98,1.44h-15.046l-6.706-14.403v14.403V387.99l-36.251-50.407
					l-36.249,50.407V258.366v-14.401c0-3.962,1.416-7.354,4.257-10.172c2.84-2.82,6.256-4.23,10.243-4.23l0,0h43.499
					c3.987,0,7.281,0.508,9.881,1.528c2.597,1.021,5.349,2.909,8.246,5.673l21.752,19.803
					C511.25,258.247,512.035,259.568,511.674,260.527z"/>
			</g>
			<g opacity="0.1219">
				<path fill="#030202" d="M512.384,261.232c-0.36,0.959-2.354,1.439-5.981,1.439h-15.046l-6.705-14.402v14.402v126.022
					L448.4,338.287l-36.25,50.407V259.07v-14.401c0-3.961,1.417-7.353,4.258-10.172c2.84-2.82,6.256-4.231,10.242-4.231v0.002
					h43.499c3.988,0,7.282,0.508,9.882,1.527c2.597,1.021,5.348,2.91,8.245,5.673l21.753,19.804
					C511.959,258.952,512.745,260.273,512.384,261.232z"/>
			</g>
			<g opacity="0.1181">
				<path fill="#030202" d="M513.093,261.938c-0.36,0.959-2.354,1.439-5.98,1.439h-15.046l-6.706-14.404v14.404V389.4
					l-36.251-50.408l-36.25,50.408V259.775v-14.401c0-3.962,1.416-7.353,4.257-10.172c2.84-2.82,6.256-4.231,10.243-4.231v0.002
					h43.499c3.987,0,7.281,0.508,9.881,1.527c2.597,1.021,5.349,2.909,8.246,5.673l21.752,19.804
					C512.669,259.657,513.454,260.979,513.093,261.938z"/>
			</g>
			<g opacity="0.1143">
				<path fill="#030202" d="M513.802,262.643c-0.36,0.959-2.354,1.439-5.98,1.439h-15.046l-6.706-14.404v14.404v126.023
					l-36.25-50.408l-36.25,50.408V260.48v-14.402c0-3.961,1.417-7.352,4.258-10.172c2.84-2.82,6.256-4.231,10.243-4.231v0.002
					h43.499c3.986,0,7.28,0.509,9.88,1.527c2.597,1.021,5.349,2.909,8.247,5.673l21.752,19.803
					C513.378,260.361,514.164,261.684,513.802,262.643z"/>
			</g>
			<g opacity="0.1105">
				<path fill="#030202" d="M514.512,263.348c-0.36,0.959-2.354,1.439-5.98,1.439h-15.046l-6.706-14.404v14.404V390.81
					l-36.251-50.406l-36.249,50.406V261.186v-14.401c0-3.961,1.416-7.353,4.257-10.173c2.84-2.819,6.256-4.23,10.243-4.23v0.002
					h43.499c3.987,0,7.282,0.508,9.881,1.527c2.597,1.021,5.349,2.908,8.246,5.673l21.752,19.803
					C514.088,261.066,514.873,262.389,514.512,263.348z"/>
			</g>
			<g opacity="0.1067">
				<path fill="#030202" d="M515.221,264.053c-0.36,0.959-2.354,1.439-5.98,1.439h-15.046l-6.705-14.404v14.404v126.021
					l-36.251-50.407l-36.249,50.407V261.891v-14.401c0-3.962,1.416-7.353,4.256-10.173c2.841-2.819,6.257-4.23,10.243-4.23v0.001
					h43.5c3.986,0,7.281,0.509,9.88,1.527c2.598,1.021,5.349,2.909,8.246,5.673l21.752,19.804
					C514.797,261.771,515.582,263.092,515.221,264.053z"/>
			</g>
			<g opacity="0.1029">
				<path fill="#030202" d="M515.931,264.757c-0.36,0.959-2.354,1.438-5.98,1.438h-15.046l-6.706-14.403v14.403v126.022
					l-36.251-50.407l-36.249,50.407V262.596v-14.402c0-3.961,1.416-7.353,4.257-10.172c2.84-2.82,6.256-4.231,10.243-4.231v0.002
					h43.499c3.988,0,7.282,0.507,9.881,1.526c2.597,1.021,5.349,2.91,8.246,5.674l21.752,19.803
					C515.507,262.477,516.292,263.797,515.931,264.757z"/>
			</g>
			<g opacity="0.099">
				<path fill="#030202" d="M516.641,265.461c-0.361,0.96-2.354,1.439-5.981,1.439h-15.046l-6.705-14.403V266.9v126.022
					l-36.251-50.407l-36.25,50.407V263.299v-14.4c0-3.961,1.417-7.354,4.258-10.172c2.84-2.82,6.256-4.231,10.243-4.231v0.002
					h43.499c3.986,0,7.281,0.506,9.88,1.526c2.598,1.021,5.349,2.91,8.246,5.672l21.753,19.805
					C516.216,263.182,517.002,264.502,516.641,265.461z"/>
			</g>
			<g opacity="0.0952">
				<path fill="#030202" d="M517.35,266.166c-0.36,0.959-2.354,1.439-5.98,1.439h-15.046l-6.706-14.404v14.404v126.022
					l-36.251-50.408l-36.249,50.408V264.004v-14.402c0-3.961,1.416-7.352,4.257-10.172c2.84-2.82,6.256-4.23,10.243-4.23v0.002
					h43.499c3.987,0,7.282,0.507,9.881,1.527c2.597,1.021,5.349,2.91,8.246,5.672l21.752,19.804
					C516.926,263.885,517.711,265.206,517.35,266.166z"/>
			</g>
			<g opacity="0.0914">
				<path fill="#030202" d="M518.059,266.871c-0.36,0.959-2.354,1.439-5.98,1.439h-15.046l-6.705-14.404v14.404v126.021
					l-36.252-50.407l-36.249,50.407V264.709v-14.402c0-3.961,1.416-7.353,4.257-10.172c2.841-2.82,6.256-4.23,10.243-4.23l0,0h43.5
					c3.987,0,7.281,0.509,9.88,1.529c2.597,1.021,5.349,2.908,8.246,5.672l21.753,19.804
					C517.636,264.59,518.421,265.911,518.059,266.871z"/>
			</g>
			<g opacity="0.0876">
				<path fill="#030202" d="M518.769,267.575c-0.36,0.96-2.354,1.438-5.98,1.438h-15.046l-6.706-14.402v14.402v126.022
					l-36.251-50.407l-36.249,50.407V265.413v-14.402c0-3.961,1.416-7.352,4.257-10.172c2.84-2.819,6.256-4.231,10.243-4.231v0.002
					h43.499c3.988,0,7.282,0.508,9.881,1.527c2.597,1.021,5.349,2.91,8.246,5.674l21.752,19.803
					C518.345,265.295,519.13,266.615,518.769,267.575z"/>
			</g>
			<g opacity="0.0838">
				<path fill="#030202" d="M519.479,268.279c-0.361,0.96-2.355,1.439-5.981,1.439H498.45l-6.706-14.404v14.404v126.022
					l-36.25-50.407l-36.25,50.407V266.118v-14.402c0-3.961,1.417-7.353,4.257-10.172c2.841-2.819,6.257-4.231,10.243-4.231v0.002
					h43.5c3.987,0,7.281,0.508,9.881,1.527c2.596,1.021,5.348,2.909,8.245,5.674l21.752,19.803
					C519.054,265.999,519.839,267.32,519.479,268.279z"/>
			</g>
			<g opacity="0.08">
				<path fill="#030202" d="M520.188,268.984c-0.36,0.959-2.354,1.439-5.98,1.439H499.16l-6.706-14.404v14.404v126.022
					l-36.251-50.407l-36.249,50.407V266.822v-14.401c0-3.962,1.416-7.353,4.257-10.173c2.84-2.818,6.256-4.23,10.243-4.23v0.002
					h43.499c3.988,0,7.282,0.508,9.881,1.527c2.597,1.021,5.349,2.909,8.246,5.674l21.752,19.801
					C519.764,266.704,520.549,268.025,520.188,268.984z"/>
			</g>
			<g opacity="0.0762">
				<path fill="#030202" d="M520.896,269.689c-0.361,0.959-2.355,1.438-5.981,1.438h-15.046l-6.705-14.403v14.403V397.15
					l-36.251-50.407l-36.25,50.407V267.527v-14.402c0-3.961,1.417-7.352,4.257-10.172s6.257-4.23,10.243-4.23v0.002h43.499
					c3.988,0,7.282,0.506,9.881,1.526c2.598,1.021,5.349,2.909,8.246,5.673l21.752,19.803
					C520.473,267.408,521.258,268.729,520.896,269.689z"/>
			</g>
			<g opacity="0.0724">
				<path fill="#030202" d="M521.606,270.395c-0.361,0.959-2.355,1.439-5.981,1.439h-15.046l-6.706-14.404v14.404v126.022
					l-36.251-50.407l-36.249,50.407V268.232V253.83c0-3.961,1.416-7.352,4.257-10.172c2.84-2.82,6.256-4.231,10.243-4.231v0.003
					h43.499c3.988,0,7.282,0.506,9.881,1.526c2.597,1.021,5.349,2.909,8.246,5.673l21.752,19.803
					C521.183,268.113,521.968,269.436,521.606,270.395z"/>
			</g>
			<g opacity="0.0686">
				<path fill="#030202" d="M522.315,271.1c-0.361,0.959-2.354,1.439-5.981,1.439h-15.046l-6.705-14.405v14.405V398.56
					l-36.252-50.406l-36.249,50.406V268.938v-14.402c0-3.961,1.416-7.352,4.257-10.172c2.84-2.82,6.256-4.231,10.243-4.231v0.002
					h43.499c3.988,0,7.282,0.507,9.881,1.527c2.597,1.021,5.349,2.909,8.246,5.673l21.753,19.803
					C521.892,268.818,522.677,270.139,522.315,271.1z"/>
			</g>
			<g opacity="0.0648">
				<path fill="#030202" d="M523.025,271.805c-0.361,0.959-2.355,1.438-5.981,1.438h-15.046l-6.706-14.404v14.404v126.021
					l-36.251-50.406l-36.249,50.406V269.643V255.24c0-3.961,1.416-7.352,4.257-10.172c2.84-2.82,6.256-4.231,10.242-4.231v0.002
					h43.5c3.988,0,7.282,0.507,9.881,1.527c2.597,1.021,5.35,2.909,8.246,5.673l21.752,19.803
					C522.602,269.521,523.387,270.844,523.025,271.805z"/>
			</g>
			<g opacity="0.061">
				<path fill="#030202" d="M523.734,272.509c-0.361,0.958-2.355,1.438-5.981,1.438h-15.046l-6.706-14.403v14.403V399.97
					l-36.251-50.407l-36.249,50.407V270.346v-14.402c0-3.959,1.416-7.351,4.257-10.17c2.84-2.82,6.256-4.231,10.243-4.231v0.002
					H481.5c3.988,0,7.282,0.507,9.881,1.526c2.597,1.021,5.35,2.91,8.246,5.673l21.752,19.803
					C523.311,270.229,524.097,271.549,523.734,272.509z"/>
			</g>
			<g opacity="0.0571">
				<path fill="#030202" d="M524.444,273.213c-0.361,0.959-2.355,1.439-5.981,1.439h-15.046l-6.706-14.404v14.404v126.021
					l-36.251-50.407l-36.249,50.407V271.051v-14.402c0-3.961,1.416-7.352,4.257-10.172c2.84-2.819,6.256-4.23,10.243-4.23v0.002
					h43.499c3.988,0,7.282,0.507,9.881,1.527c2.597,1.021,5.35,2.908,8.246,5.672l21.752,19.804
					C524.021,270.932,524.806,272.253,524.444,273.213z"/>
			</g>
			<g opacity="0.0533">
				<path fill="#030202" d="M525.154,273.918c-0.362,0.959-2.356,1.439-5.982,1.439h-15.046l-6.706-14.404v14.404V401.38
					l-36.25-50.407l-36.25,50.407V271.756v-14.402c0-3.961,1.416-7.352,4.257-10.172c2.84-2.82,6.256-4.23,10.243-4.23v0.002h43.499
					c3.988,0,7.282,0.507,9.881,1.527c2.598,1.021,5.35,2.908,8.246,5.672l21.752,19.804
					C524.729,271.637,525.515,272.957,525.154,273.918z"/>
			</g>
			<g opacity="0.0495">
				<path fill="#030202" d="M525.863,274.623c-0.361,0.958-2.355,1.438-5.981,1.438h-15.046l-6.706-14.403v14.403v126.023
					l-36.251-50.408l-36.249,50.408V272.46v-14.401c0-3.961,1.416-7.353,4.257-10.173c2.84-2.819,6.256-4.231,10.243-4.231v0.003
					h43.499c3.988,0,7.282,0.507,9.881,1.526c2.598,1.021,5.35,2.91,8.246,5.674l21.752,19.803
					C525.439,272.341,526.225,273.662,525.863,274.623z"/>
			</g>
			<g opacity="0.0457">
				<path fill="#030202" d="M526.572,275.327c-0.361,0.959-2.355,1.438-5.981,1.438h-15.046l-6.706-14.404v14.404v126.022
					l-36.251-50.407l-36.249,50.407V273.165v-14.401c0-3.962,1.416-7.353,4.257-10.173c2.84-2.819,6.256-4.231,10.243-4.231v0.002
					h43.499c3.988,0,7.282,0.508,9.881,1.527c2.598,1.021,5.35,2.909,8.246,5.674l21.752,19.803
					C526.148,273.046,526.934,274.367,526.572,275.327z"/>
			</g>
			<g opacity="0.0419">
				<path fill="#030202" d="M527.281,276.031c-0.36,0.959-2.354,1.439-5.98,1.439h-15.046l-6.706-14.404v14.404v126.021
					l-36.251-50.407l-36.249,50.407V273.869v-14.402c0-3.961,1.416-7.351,4.257-10.172c2.841-2.818,6.255-4.23,10.243-4.23v0.002
					h43.499c3.987,0,7.282,0.508,9.881,1.526c2.598,1.021,5.349,2.91,8.246,5.675l21.752,19.801
					C526.858,273.751,527.644,275.07,527.281,276.031z"/>
			</g>
			<g opacity="0.0381">
				<path fill="#030202" d="M527.991,276.736c-0.361,0.959-2.355,1.438-5.981,1.438h-15.046l-6.706-14.403v14.403v126.022
					l-36.251-50.407l-36.249,50.407V274.574v-14.402c0-3.961,1.416-7.352,4.257-10.172s6.257-4.23,10.243-4.23v0.002h43.499
					c3.988,0,7.282,0.506,9.881,1.526c2.598,1.021,5.35,2.909,8.246,5.673l21.752,19.803
					C527.567,274.455,528.354,275.775,527.991,276.736z"/>
			</g>
			<g opacity="0.0343">
				<path fill="#030202" d="M528.701,277.441c-0.361,0.957-2.355,1.438-5.981,1.438h-15.046l-6.706-14.403v14.403v126.022
					l-36.251-50.408l-36.249,50.408V275.277v-14.4c0-3.961,1.416-7.352,4.257-10.172s6.257-4.23,10.243-4.23v0.002h43.499
					c3.988,0,7.282,0.506,9.881,1.526c2.598,1.021,5.349,2.909,8.246,5.673l21.752,19.803
					C528.276,275.16,529.063,276.48,528.701,277.441z"/>
			</g>
			<g opacity="0.0305">
				<path fill="#030202" d="M529.41,278.146c-0.361,0.959-2.355,1.439-5.981,1.439h-15.046l-6.706-14.404v14.404v126.021
					L465.426,355.2l-36.249,50.407V275.982v-14.401c0-3.961,1.416-7.353,4.257-10.172c2.841-2.82,6.257-4.231,10.243-4.231v0.002
					h43.499c3.988,0,7.282,0.508,9.881,1.527c2.598,1.021,5.35,2.91,8.246,5.673l21.752,19.804
					C528.986,275.864,529.771,277.186,529.41,278.146z"/>
			</g>
			<g opacity="0.0267">
				<path fill="#030202" d="M530.12,278.852c-0.362,0.959-2.355,1.438-5.981,1.438h-15.047l-6.705-14.403v14.403v126.022
					l-36.251-50.407l-36.25,50.407V276.688v-14.401c0-3.961,1.417-7.353,4.258-10.173c2.841-2.819,6.257-4.23,10.243-4.23v0.002
					h43.499c3.988,0,7.282,0.508,9.88,1.527c2.599,1.02,5.35,2.908,8.247,5.673l21.752,19.804
					C529.696,276.568,530.481,277.891,530.12,278.852z"/>
			</g>
			<g opacity="0.0229">
				<path fill="#030202" d="M530.829,279.555c-0.361,0.959-2.355,1.439-5.981,1.439h-15.046l-6.706-14.404v14.404v126.022
					l-36.251-50.406l-36.249,50.406V277.393v-14.4c0-3.963,1.416-7.354,4.257-10.174c2.841-2.819,6.257-4.23,10.243-4.23v0.002
					h43.499c3.988,0,7.282,0.508,9.881,1.527c2.598,1.021,5.35,2.91,8.246,5.673l21.752,19.803
					C530.405,277.273,531.19,278.596,530.829,279.555z"/>
			</g>
			<g opacity="0.019">
				<path fill="#030202" d="M531.538,280.26c-0.36,0.959-2.354,1.439-5.98,1.439h-15.046l-6.707-14.404v14.404v126.021
					l-36.251-50.406l-36.248,50.406V278.098v-14.402c0-3.961,1.416-7.352,4.257-10.172c2.841-2.819,6.256-4.23,10.243-4.23v0.002
					h43.499c3.988,0,7.281,0.507,9.881,1.527c2.598,1.021,5.35,2.908,8.246,5.673l21.752,19.803
					C531.115,277.979,531.899,279.3,531.538,280.26z"/>
			</g>
			<g opacity="0.0152">
				<path fill="#030202" d="M532.248,280.965c-0.361,0.959-2.355,1.439-5.981,1.439h-15.046L504.515,268v14.404v126.021
					l-36.251-50.406l-36.249,50.406V278.802V264.4c0-3.961,1.416-7.353,4.258-10.172c2.84-2.82,6.256-4.231,10.242-4.231v0.002
					h43.499c3.988,0,7.282,0.507,9.881,1.526c2.598,1.021,5.35,2.91,8.246,5.674l21.752,19.803
					C531.824,278.684,532.609,280.004,532.248,280.965z"/>
			</g>
			<g opacity="0.0114">
				<path fill="#030202" d="M532.958,281.669c-0.361,0.959-2.354,1.438-5.981,1.438H511.93l-6.706-14.403v14.403v126.023
					l-36.25-50.408l-36.249,50.408V279.507v-14.401c0-3.961,1.415-7.353,4.258-10.172c2.84-2.82,6.256-4.231,10.242-4.231v0.002
					h43.498c3.989,0,7.283,0.507,9.883,1.526c2.597,1.021,5.349,2.91,8.244,5.674l21.754,19.803
					C532.534,279.389,533.318,280.709,532.958,281.669z"/>
			</g>
			<g opacity="0.0076">
				<path fill="#030202" d="M533.667,282.374c-0.361,0.958-2.354,1.438-5.981,1.438H512.64l-6.706-14.403v14.403v126.022
					l-36.251-50.407l-36.249,50.407V280.212v-14.401c0-3.961,1.416-7.353,4.258-10.172c2.84-2.82,6.256-4.231,10.242-4.231v0.002
					h43.499c3.988,0,7.282,0.507,9.882,1.526c2.597,1.021,5.349,2.91,8.245,5.674l21.753,19.802
					C533.243,280.093,534.028,281.414,533.667,282.374z"/>
			</g>
			<g opacity="0.0038">
				<path fill="#030202" d="M534.377,283.078c-0.361,0.96-2.355,1.439-5.98,1.439h-15.048l-6.706-14.403v14.403V410.54
					l-36.25-50.407l-36.249,50.407V280.916v-14.402c0-3.961,1.416-7.352,4.258-10.171c2.84-2.821,6.255-4.231,10.242-4.231v0.002
					h43.499c3.987,0,7.281,0.508,9.882,1.527c2.597,1.021,5.349,2.909,8.244,5.672l21.753,19.805
					C533.953,280.797,534.737,282.118,534.377,283.078z"/>
			</g>
			<g opacity="0">
				<g>
					<path fill="#030202" d="M535.086,283.783c-0.361,0.959-2.354,1.439-5.98,1.439h-15.047l-6.706-14.404v14.404v126.021
						l-36.251-50.407l-36.249,50.407V281.621v-14.402c0-3.961,1.416-7.352,4.258-10.172c2.84-2.82,6.256-4.23,10.242-4.23v0.002
						h43.499c3.988,0,7.282,0.507,9.882,1.527c2.597,1.021,5.349,2.908,8.245,5.672l21.752,19.803
						C534.662,281.502,535.447,282.823,535.086,283.783z"/>
				</g>
			</g>
		</g>
	</g>
</g>
<g>
	<g>
		<path fill="#FFFFFF" d="M386.102,135.801c-0.361,0.959-2.354,1.44-5.98,1.44h-15.047l-6.704-14.403v14.403v126.024l-36.251-50.41
			l-36.251,50.41V133.639v-14.401c0-3.963,1.418-7.354,4.258-10.173c2.84-2.82,6.256-4.23,10.242-4.23l0,0h43.5
			c3.987,0,7.28,0.509,9.88,1.53c2.598,1.021,5.35,2.911,8.246,5.671l21.753,19.803C385.677,133.52,386.463,134.841,386.102,135.801
			z"/>
	</g>
</g>
</svg>
